# Blender v2.79 (sub 0) OBJ File: ''
# www.blender.org
mtllib cloud.mtl
o Cube
v 0.834000 -1.000000 0.647315
v 0.834000 -0.834000 0.481315
v 1.000000 -0.834000 0.647315
v 0.929840 -0.929840 0.551475
v -0.951380 -0.951379 0.647315
v -0.951380 -0.834000 0.529935
v -0.834000 -0.951380 0.529935
v -1.000000 0.834000 0.647315
v -0.834000 1.000000 0.647315
v -0.834000 0.834000 0.481315
v -0.929840 0.929840 0.551475
v 0.951380 0.834000 0.529935
v 0.834000 0.951379 0.529935
v 0.951380 0.951380 0.647315
v 0.951379 -0.834000 0.951380
v 0.833999 -0.951380 0.951380
v 0.951379 -0.951380 0.834000
v -1.000000 -0.834000 0.834000
v -0.834000 -1.000000 0.834000
v -0.834000 -0.833999 1.000000
v -0.929841 -0.929840 0.929840
v -0.951379 0.951380 0.834000
v -0.951379 0.834000 0.951380
v -0.834000 0.951380 0.951380
v 0.834000 1.000000 0.834000
v 0.834000 0.834000 1.000000
v 1.000000 0.834000 0.834000
v 0.929840 0.929840 0.929840
vt 0.662198 0.100196
vt 0.683281 0.100196
vt 0.683281 0.321999
vt 0.341523 0.100196
vt 0.341523 0.321998
vt 0.362605 0.100196
vt 0.362605 0.988439
vt 0.362605 0.674762
vt 0.345391 0.855863
vt 0.662198 0.008322
vt 0.692014 0.321998
vt 0.692013 0.674762
vt 0.662198 0.674762
vt 0.362605 0.321999
vt 0.332790 0.321999
vt 0.341522 0.674762
vt 0.662198 0.321998
vt 0.362605 0.008323
vt 0.332790 0.674762
vt 0.662198 0.896564
vt 0.662198 0.988439
vt 0.683281 0.896564
vt 0.683281 0.674762
vt 0.679412 0.855863
vt 0.341522 0.896564
vt 0.362605 0.896565
vt 0.345391 0.140898
vt 0.679412 0.140897
vn -0.6594 -0.1775 -0.7306
vn -0.1775 -0.6594 -0.7306
vn -0.6952 -0.6952 -0.1826
vn 0.1775 0.6594 -0.7306
vn 0.6952 0.6952 -0.1826
vn 0.6594 0.1775 -0.7306
vn 0.2791 0.2791 0.9188
vn 0.9362 0.2309 0.2649
vn 0.5773 0.5773 0.5773
vn 0.2791 -0.2791 -0.9188
vn 0.2309 -0.9362 -0.2649
vn -0.2309 -0.9362 0.2649
vn -0.9362 -0.2309 0.2649
vn -0.9362 0.2309 -0.2649
vn -0.2309 0.9362 -0.2649
vn -0.6952 0.6952 0.1826
vn 0.9362 -0.2309 -0.2649
vn -0.2791 0.2791 -0.9188
vn 0.2309 0.9362 0.2649
vn 0.6594 -0.1775 0.7306
vn -0.2791 -0.2791 0.9188
vn 0.1775 -0.6594 0.7306
vn 0.6952 -0.6952 0.1826
vn -0.5773 -0.5773 0.5773
vn -0.1775 0.6594 0.7306
vn -0.6594 0.1775 0.7306
vn -0.5773 0.5773 -0.5773
vn 0.5773 -0.5773 -0.5773
usemtl Material
s 1
f 6/1/1 7/2/2 5/3/3
f 13/4/4 14/5/5 12/6/6
f 26/7/7 27/8/8 28/9/9
f 2/10/10 1/11/11 7/2/2
f 19/12/12 7/2/2 1/11/11
f 6/1/1 18/13/13 8/14/14
f 6/1/1 2/10/10 7/2/2
f 9/15/15 8/14/14 22/16/16
f 12/6/6 27/8/8 3/17/17
f 12/6/6 10/18/18 13/4/4
f 13/4/4 25/19/19 14/5/5
f 15/20/20 3/17/17 27/8/8
f 15/20/20 20/21/21 16/22/22
f 16/22/22 1/11/11 17/23/23
f 18/13/13 19/12/12 21/24/24
f 24/25/25 9/15/15 22/16/16
f 23/26/26 8/14/14 18/13/13
f 23/26/26 26/7/7 24/25/25
f 25/19/19 26/7/7 28/9/9
f 10/18/18 8/14/14 11/27/27
f 27/8/8 25/19/19 28/9/9
f 19/12/12 20/21/21 21/24/24
f 18/13/13 20/21/21 23/26/26
f 16/22/22 17/23/23 15/20/20
f 23/26/26 24/25/25 22/16/16
f 1/11/11 3/17/17 17/23/23
f 3/17/17 2/10/10 12/6/6
f 10/18/18 9/15/15 13/4/4
f 26/7/7 15/20/20 27/8/8
f 2/10/10 4/28/28 1/11/11
f 19/12/12 5/3/3 7/2/2
f 6/1/1 5/3/3 18/13/13
f 6/1/1 10/18/18 2/10/10
f 9/15/15 11/27/27 8/14/14
f 12/6/6 14/5/5 27/8/8
f 12/6/6 2/10/10 10/18/18
f 13/4/4 9/15/15 25/19/19
f 15/20/20 17/23/23 3/17/17
f 15/20/20 26/7/7 20/21/21
f 16/22/22 19/12/12 1/11/11
f 18/13/13 5/3/3 19/12/12
f 24/25/25 25/19/19 9/15/15
f 23/26/26 22/16/16 8/14/14
f 23/26/26 20/21/21 26/7/7
f 25/19/19 24/25/25 26/7/7
f 10/18/18 6/1/1 8/14/14
f 27/8/8 14/5/5 25/19/19
f 19/12/12 16/22/22 20/21/21
f 18/13/13 21/24/24 20/21/21
f 1/11/11 4/28/28 3/17/17
f 3/17/17 4/28/28 2/10/10
f 10/18/18 11/27/27 9/15/15
