# Blender v2.79 (sub 0) OBJ File: ''
# www.blender.org
mtllib player.mtl
o Cube
v 0.910000 -1.000000 -0.910000
v 0.910000 -0.910000 -1.000000
v 1.000000 -0.910000 -0.910000
v 0.910000 -0.987976 -0.954941
v 0.954941 -0.987976 -0.910000
v 0.953039 -0.976297 -0.953039
v 0.954941 -0.910000 -0.987976
v 0.910000 -0.954941 -0.987976
v 0.953039 -0.953039 -0.976297
v 0.987976 -0.954941 -0.910000
v 0.987976 -0.910000 -0.954941
v 0.976297 -0.953039 -0.953039
v -0.910000 -1.000000 -0.910000
v -1.000000 -0.910000 -0.910000
v -0.910000 -0.910000 -1.000000
v -0.954941 -0.987976 -0.910000
v -0.910000 -0.987976 -0.954941
v -0.953039 -0.976297 -0.953039
v -0.987976 -0.910000 -0.954941
v -0.987976 -0.954941 -0.910000
v -0.976297 -0.953039 -0.953039
v -0.910000 -0.954941 -0.987976
v -0.954941 -0.910000 -0.987976
v -0.953039 -0.953039 -0.976297
v -1.000000 0.910000 -0.910000
v -0.910000 1.000000 -0.910000
v -0.910000 0.910000 -1.000000
v -0.987976 0.954941 -0.910000
v -0.987976 0.910000 -0.954941
v -0.976297 0.953039 -0.953039
v -0.910000 0.987976 -0.954941
v -0.954941 0.987976 -0.910000
v -0.953039 0.976297 -0.953039
v -0.954941 0.910000 -0.987976
v -0.910000 0.954941 -0.987976
v -0.953039 0.953039 -0.976297
v 1.000000 0.910000 -0.910000
v 0.910000 0.910000 -1.000000
v 0.910000 1.000000 -0.910000
v 0.987977 0.910000 -0.954941
v 0.987977 0.954941 -0.910000
v 0.976297 0.953039 -0.953039
v 0.910000 0.954941 -0.987976
v 0.954941 0.910000 -0.987976
v 0.953039 0.953039 -0.976297
v 0.954941 0.987976 -0.910000
v 0.910000 0.987976 -0.954941
v 0.953039 0.976297 -0.953039
v 0.999999 -0.910001 0.910000
v 0.909999 -0.910000 1.000000
v 0.909999 -1.000000 0.910000
v 0.987976 -0.910000 0.954941
v 0.987976 -0.954941 0.910000
v 0.976296 -0.953039 0.953039
v 0.909999 -0.954941 0.987976
v 0.954940 -0.910000 0.987976
v 0.953038 -0.953039 0.976297
v 0.954940 -0.987977 0.910000
v 0.909999 -0.987977 0.954941
v 0.953038 -0.976297 0.953039
v -1.000001 -0.909999 0.910000
v -0.910001 -0.999999 0.910000
v -0.910001 -0.909999 1.000000
v -0.987977 -0.954940 0.910000
v -0.987977 -0.909999 0.954941
v -0.976298 -0.953038 0.953039
v -0.910001 -0.987976 0.954941
v -0.954942 -0.987976 0.910000
v -0.953040 -0.976296 0.953039
v -0.954942 -0.909999 0.987976
v -0.910001 -0.954940 0.987976
v -0.953040 -0.953039 0.976297
v -0.910000 1.000000 0.910000
v -1.000000 0.910000 0.910000
v -0.910000 0.910000 1.000000
v -0.954941 0.987977 0.910000
v -0.910000 0.987977 0.954941
v -0.953039 0.976297 0.953039
v -0.987976 0.910000 0.954941
v -0.987976 0.954941 0.910000
v -0.976297 0.953039 0.953039
v -0.910000 0.954941 0.987976
v -0.954941 0.910000 0.987976
v -0.953039 0.953039 0.976297
v 0.910000 1.000000 0.910000
v 0.910000 0.910000 1.000000
v 1.000000 0.910000 0.910000
v 0.910000 0.987976 0.954941
v 0.954941 0.987976 0.910000
v 0.953039 0.976297 0.953039
v 0.954941 0.910000 0.987976
v 0.910000 0.954941 0.987976
v 0.953039 0.953039 0.976297
v 0.987976 0.954941 0.910000
v 0.987976 0.910000 0.954941
v 0.976297 0.953039 0.953039
vt 0.477500 0.045000
vt 0.022500 0.955000
vt 0.022500 0.045000
vt 0.477500 0.045000
vt 0.022500 0.955000
vt 0.022500 0.045000
vt 0.477500 0.045000
vt 0.022500 0.955000
vt 0.022500 0.045000
vt 0.477500 0.045000
vt 0.022500 0.955000
vt 0.022500 0.045000
vt 0.477500 0.045000
vt 0.022500 0.955000
vt 0.022500 0.045000
vt 0.977500 0.022529
vt 0.988735 0.045000
vt 0.977500 0.045000
vt 0.988260 -0.000000
vt 0.988260 0.023480
vt 0.011265 0.045000
vt 0.022500 0.022529
vt 0.000000 0.045000
vt 0.011740 0.023480
vt 0.477500 0.022529
vt 0.488735 0.045000
vt 0.477500 0.000000
vt 0.488260 0.023480
vt 1.000000 0.023480
vt 0.511265 0.045000
vt 0.522500 0.022529
vt 0.522500 0.045000
vt 0.500000 0.045000
vt 0.511740 0.023480
vt 0.011265 0.045000
vt 0.022500 0.022529
vt 0.000000 0.045000
vt 0.011740 0.023480
vt 0.477500 0.022529
vt 0.488735 0.045000
vt 0.477500 0.000000
vt 0.488260 0.023480
vt 0.500000 0.023480
vt 0.511740 -0.000000
vt 0.022500 0.977470
vt 0.011265 0.955000
vt 0.011740 1.000000
vt 0.011740 0.976519
vt 0.011265 0.045000
vt 0.022500 0.022529
vt 0.000000 0.045000
vt 0.011740 0.023480
vt 0.488735 0.955000
vt 0.477500 0.977471
vt 0.477500 0.955000
vt 0.500000 0.976520
vt 0.488260 0.976520
vt 0.000000 0.976520
vt 0.488735 0.955000
vt 0.477500 0.977471
vt 0.477500 0.955000
vt 0.500000 0.976520
vt 0.488260 0.976520
vt 0.022500 0.977471
vt 0.011265 0.955000
vt 0.022500 1.000000
vt 0.011740 0.976520
vt 0.022500 0.977470
vt 0.011265 0.955000
vt 0.011740 1.000000
vt 0.011740 0.976519
vt 0.488260 1.000000
vt 0.011265 0.045000
vt 0.022500 0.022530
vt 0.000000 0.045000
vt 0.011740 0.023480
vt 0.011265 0.045000
vt 0.022500 0.022530
vt 0.000000 0.023481
vt 0.011740 0.023481
vt 0.988735 0.955000
vt 0.977500 0.977471
vt 0.977500 0.955000
vt 1.000000 0.976520
vt 0.988260 0.976520
vt 0.000000 0.023481
vt 0.011740 0.000000
vt 0.477500 0.022529
vt 0.488735 0.045000
vt 0.477500 0.000000
vt 0.488260 0.023480
vt 0.522500 0.977471
vt 0.511265 0.955000
vt 0.522500 0.955000
vt 0.511740 1.000000
vt 0.511740 0.976520
vt 0.022500 0.977470
vt 0.011265 0.955000
vt 0.022500 1.000000
vt 0.011740 0.976519
vt 0.488260 0.000000
vt 0.500000 0.023480
vt 0.477500 0.022529
vt 0.488735 0.045000
vt 0.488260 0.000000
vt 0.488260 0.023480
vt 0.488735 0.955000
vt 0.477500 0.977470
vt 0.477500 0.955000
vt 0.500000 0.976519
vt 0.488260 0.976520
vt 0.488735 0.955000
vt 0.477500 0.977471
vt 0.477500 0.955000
vt 0.500000 0.955000
vt 0.488260 0.976520
vt 0.500000 0.023480
vt 0.488735 0.955000
vt 0.477500 0.977471
vt 0.477500 0.955000
vt 0.500000 0.955000
vt 0.488260 0.976520
vt 0.477500 0.022529
vt 0.488735 0.045000
vt 0.488260 0.000000
vt 0.488260 0.023480
vt 0.022500 0.977470
vt 0.011265 0.955000
vt 0.022500 1.000000
vt 0.011740 0.976519
vt 0.500000 0.976520
vt 0.488260 1.000000
vt 0.977500 -0.000000
vt 0.022500 1.000000
vt 0.022500 1.000000
vt 0.000000 0.955000
vt 0.000000 0.045000
vt 0.000000 0.023480
vt 0.488260 0.000000
vt 0.000000 0.023480
vt 0.488260 0.000000
vt 0.000000 0.023480
vt 0.500000 0.955000
vt 0.500000 0.955000
vt 0.011740 1.000000
vt 1.000000 0.955000
vt 0.522500 1.000000
vt 0.011740 1.000000
vt 0.477500 0.000000
vt 0.500000 0.955000
vt 0.500000 0.976520
vt 0.477500 0.000000
vt 0.011740 1.000000
vt 0.522500 -0.000000
vt 0.000000 0.955000
vt 0.022500 0.000000
vt 0.000000 0.955000
vt 0.500000 0.955000
vt 0.000000 0.955000
vt 0.477500 1.000000
vt 0.477500 1.000000
vt 0.000000 0.955000
vt 0.477500 1.000000
vt 0.500000 0.045000
vn 0.9835 -0.1280 -0.1280
vn 0.9835 0.1280 0.1280
vn 0.9835 -0.1280 0.1280
vn -0.1280 -0.1280 -0.9835
vn 0.1280 0.1280 -0.9835
vn 0.1280 -0.1280 -0.9835
vn -0.1280 0.9835 0.1280
vn 0.1280 0.9835 -0.1280
vn -0.1280 0.9835 -0.1280
vn 0.1280 0.1280 0.9835
vn -0.1280 -0.1280 0.9835
vn 0.1280 -0.1280 0.9835
vn -0.9835 -0.1280 0.1280
vn -0.9835 0.1280 -0.1280
vn -0.9835 -0.1280 -0.1280
vn 0.1216 -0.8623 -0.4916
vn 0.4916 -0.8623 -0.1216
vn 0.1280 -0.9835 -0.1280
vn 0.4488 -0.4488 -0.7727
vn 0.4488 -0.7727 -0.4488
vn 0.4916 -0.1216 -0.8623
vn 0.1216 -0.4916 -0.8623
vn 0.8623 -0.1216 -0.4916
vn 0.8623 -0.4916 -0.1216
vn 0.7727 -0.4488 -0.4488
vn -0.4916 -0.8623 -0.1216
vn -0.1216 -0.8623 -0.4916
vn -0.1280 -0.9835 -0.1280
vn -0.8623 -0.4916 -0.1216
vn -0.4488 -0.7727 -0.4488
vn -0.8623 -0.1216 -0.4916
vn -0.4916 -0.1216 -0.8623
vn -0.7727 -0.4488 -0.4488
vn -0.1216 -0.4916 -0.8623
vn -0.4488 -0.4488 -0.7727
vn -0.8623 0.4916 -0.1216
vn -0.8623 0.1216 -0.4916
vn -0.4488 0.7727 -0.4488
vn -0.7727 0.4488 -0.4488
vn -0.1216 0.8623 -0.4916
vn -0.4916 0.8623 -0.1216
vn -0.1216 0.4916 -0.8623
vn -0.4916 0.1216 -0.8623
vn -0.1280 0.1280 -0.9835
vn -0.4488 0.4488 -0.7727
vn 0.8623 0.1216 -0.4916
vn 0.8623 0.4916 -0.1216
vn 0.9835 0.1280 -0.1280
vn 0.4488 0.4488 -0.7727
vn 0.7727 0.4488 -0.4488
vn 0.1216 0.4916 -0.8623
vn 0.4916 0.1216 -0.8623
vn 0.1216 0.8623 -0.4916
vn 0.4916 0.8623 -0.1216
vn 0.4488 0.7727 -0.4488
vn 0.8623 -0.1216 0.4916
vn 0.8623 -0.4916 0.1216
vn 0.4916 -0.1216 0.8623
vn 0.7727 -0.4488 0.4488
vn 0.1216 -0.4916 0.8623
vn 0.4488 -0.7727 0.4488
vn 0.4488 -0.4488 0.7727
vn 0.4916 -0.8623 0.1216
vn 0.1216 -0.8623 0.4916
vn 0.1280 -0.9835 0.1280
vn -0.8623 -0.4916 0.1216
vn -0.8623 -0.1216 0.4916
vn -0.4916 -0.8623 0.1216
vn -0.7727 -0.4488 0.4488
vn -0.1216 -0.8623 0.4916
vn -0.1280 -0.9835 0.1280
vn -0.4488 -0.4488 0.7727
vn -0.4488 -0.7727 0.4488
vn -0.4916 -0.1216 0.8623
vn -0.1216 -0.4916 0.8623
vn -0.4916 0.8623 0.1216
vn -0.1216 0.8623 0.4916
vn -0.7727 0.4488 0.4488
vn -0.4488 0.7727 0.4488
vn -0.8623 0.1216 0.4916
vn -0.8623 0.4916 0.1216
vn -0.9835 0.1280 0.1280
vn -0.4488 0.4488 0.7727
vn -0.1216 0.4916 0.8623
vn -0.4916 0.1216 0.8623
vn -0.1280 0.1280 0.9835
vn 0.1216 0.8623 0.4916
vn 0.4916 0.8623 0.1216
vn 0.1280 0.9835 0.1280
vn 0.1216 0.4916 0.8623
vn 0.4488 0.7727 0.4488
vn 0.4916 0.1216 0.8623
vn 0.7727 0.4488 0.4488
vn 0.4488 0.4488 0.7727
vn 0.8623 0.4916 0.1216
vn 0.8623 0.1216 0.4916
usemtl Material
s 1
f 3/1/1 87/2/2 49/3/3
f 15/4/4 38/5/5 2/6/6
f 73/7/7 39/8/8 26/9/9
f 86/10/10 63/11/11 50/12/12
f 61/13/13 25/14/14 14/15/15
f 4/16/16 5/17/17 1/18/18
f 4/16/16 9/19/19 6/20/20
f 7/21/21 8/22/22 2/6/6
f 11/23/23 9/24/19 7/21/21
f 10/25/24 11/26/23 3/1/1
f 5/27/17 12/28/25 10/25/24
f 6/20/20 9/19/19 12/29/25
f 16/30/26 17/31/27 13/32/28
f 20/33/29 18/34/30 16/30/26
f 19/35/31 20/36/29 14/15/15
f 23/37/32 21/38/33 19/35/31
f 22/39/34 23/40/32 15/4/4
f 17/41/27 24/42/35 22/39/34
f 18/34/30 21/43/33 24/44/35
f 28/45/36 29/46/37 25/14/14
f 28/45/36 33/47/38 30/48/39
f 31/49/40 32/50/41 26/9/9
f 35/51/42 33/52/38 31/49/40
f 34/53/43 35/54/42 27/55/44
f 34/53/43 30/56/39 36/57/45
f 30/48/39 33/47/38 36/58/45
f 40/59/46 41/60/47 37/61/48
f 40/59/46 45/62/49 42/63/50
f 43/64/51 44/65/52 38/5/5
f 47/66/53 45/67/49 43/64/51
f 46/68/54 47/69/53 39/8/8
f 46/68/54 42/70/50 48/71/55
f 42/63/50 45/62/49 48/72/55
f 52/73/56 53/74/57 49/3/3
f 56/75/58 54/76/59 52/73/56
f 55/77/60 56/78/58 50/12/12
f 55/77/60 60/79/61 57/80/62
f 58/81/63 59/82/64 51/83/65
f 58/81/63 54/84/59 60/85/61
f 54/76/59 57/86/62 60/87/61
f 64/88/66 65/89/67 61/13/13
f 68/90/68 66/91/69 64/88/66
f 67/92/70 68/93/68 62/94/71
f 67/92/70 72/95/72 69/96/73
f 70/97/74 71/98/75 63/11/11
f 65/99/67 72/100/72 70/97/74
f 66/91/69 69/101/73 72/102/72
f 76/103/76 77/104/77 73/7/7
f 76/103/76 81/105/78 78/106/79
f 79/107/80 80/108/81 74/109/82
f 79/107/80 84/110/83 81/111/78
f 82/112/84 83/113/85 75/114/86
f 77/115/77 84/116/83 82/112/84
f 78/106/79 81/105/78 84/117/83
f 88/118/87 89/119/88 85/120/89
f 92/121/90 90/122/91 88/118/87
f 91/123/92 92/124/90 86/10/10
f 91/123/92 96/125/93 93/126/94
f 94/127/95 95/128/96 87/2/2
f 89/129/88 96/130/93 94/127/95
f 90/122/91 93/131/94 96/132/93
f 13/32/28 4/16/16 1/18/18
f 17/31/27 8/133/22 4/16/16
f 22/39/34 2/6/6 8/22/22
f 2/6/6 44/65/52 7/21/21
f 44/65/52 11/23/23 7/21/21
f 40/59/46 3/1/1 11/26/23
f 49/3/3 10/25/24 3/1/1
f 53/74/57 5/27/17 10/25/24
f 58/81/63 1/18/18 5/17/17
f 25/14/14 19/35/31 14/15/15
f 29/46/37 23/37/32 19/35/31
f 23/40/32 27/55/44 15/4/4
f 62/94/71 16/30/26 13/32/28
f 68/93/68 20/33/29 16/30/26
f 64/88/66 14/15/15 20/36/29
f 39/8/8 31/49/40 26/9/9
f 47/69/53 35/51/42 31/49/40
f 35/54/42 38/5/5 27/55/44
f 74/109/82 28/45/36 25/14/14
f 80/108/81 32/134/41 28/45/36
f 76/103/76 26/9/9 32/50/41
f 85/120/89 46/68/54 39/8/8
f 89/119/88 41/135/47 46/68/54
f 41/60/47 87/2/2 37/61/48
f 63/11/11 55/77/60 50/12/12
f 55/77/60 67/136/70 59/137/64
f 67/92/70 51/83/65 59/82/64
f 87/2/2 52/73/56 49/3/3
f 95/128/96 56/75/58 52/73/56
f 91/123/92 50/12/12 56/78/58
f 75/114/86 70/97/74 63/11/11
f 83/113/85 65/99/67 70/97/74
f 79/107/80 61/13/13 65/89/67
f 86/10/10 82/112/84 75/114/86
f 92/124/90 77/115/77 82/112/84
f 77/104/77 85/120/89 73/7/7
f 51/83/65 13/32/28 1/18/18
f 3/1/1 37/61/48 87/2/2
f 15/4/4 27/55/44 38/5/5
f 73/7/7 85/120/89 39/8/8
f 86/10/10 75/114/86 63/11/11
f 61/13/13 74/109/82 25/14/14
f 4/16/16 6/20/20 5/17/17
f 4/16/16 8/133/22 9/19/19
f 7/21/21 9/24/19 8/22/22
f 11/23/23 12/138/25 9/24/19
f 10/25/24 12/28/25 11/26/23
f 5/27/17 6/139/20 12/28/25
f 16/30/26 18/34/30 17/31/27
f 20/33/29 21/43/33 18/34/30
f 19/35/31 21/38/33 20/36/29
f 23/37/32 24/140/35 21/38/33
f 22/39/34 24/42/35 23/40/32
f 17/41/27 18/141/30 24/42/35
f 28/45/36 30/48/39 29/46/37
f 28/45/36 32/134/41 33/47/38
f 31/49/40 33/52/38 32/50/41
f 35/51/42 36/142/45 33/52/38
f 34/53/43 36/57/45 35/54/42
f 34/53/43 29/143/37 30/56/39
f 40/59/46 42/63/50 41/60/47
f 40/59/46 44/144/52 45/62/49
f 43/64/51 45/67/49 44/65/52
f 47/66/53 48/145/55 45/67/49
f 46/68/54 48/71/55 47/69/53
f 46/68/54 41/135/47 42/70/50
f 52/73/56 54/76/59 53/74/57
f 56/75/58 57/86/62 54/76/59
f 55/77/60 57/80/62 56/78/58
f 55/77/60 59/137/64 60/79/61
f 58/81/63 60/85/61 59/82/64
f 58/81/63 53/146/57 54/84/59
f 64/88/66 66/91/69 65/89/67
f 68/90/68 69/101/73 66/91/69
f 67/92/70 69/96/73 68/93/68
f 67/92/70 71/147/75 72/95/72
f 70/97/74 72/100/72 71/98/75
f 65/99/67 66/148/69 72/100/72
f 76/103/76 78/106/79 77/104/77
f 76/103/76 80/149/81 81/105/78
f 79/107/80 81/111/78 80/108/81
f 79/107/80 83/150/85 84/110/83
f 82/112/84 84/116/83 83/113/85
f 77/115/77 78/151/79 84/116/83
f 88/118/87 90/122/91 89/119/88
f 92/121/90 93/131/94 90/122/91
f 91/123/92 93/126/94 92/124/90
f 91/123/92 95/152/96 96/125/93
f 94/127/95 96/130/93 95/128/96
f 89/129/88 90/153/91 96/130/93
f 13/32/28 17/31/27 4/16/16
f 17/31/27 22/154/34 8/133/22
f 22/39/34 15/4/4 2/6/6
f 2/6/6 38/5/5 44/65/52
f 44/65/52 40/155/46 11/23/23
f 40/59/46 37/61/48 3/1/1
f 49/3/3 53/74/57 10/25/24
f 53/74/57 58/156/63 5/27/17
f 58/81/63 51/83/65 1/18/18
f 25/14/14 29/46/37 19/35/31
f 29/46/37 34/157/43 23/37/32
f 23/40/32 34/53/43 27/55/44
f 62/94/71 68/93/68 16/30/26
f 68/93/68 64/158/66 20/33/29
f 64/88/66 61/13/13 14/15/15
f 39/8/8 47/69/53 31/49/40
f 47/69/53 43/159/51 35/51/42
f 35/54/42 43/64/51 38/5/5
f 74/109/82 80/108/81 28/45/36
f 80/108/81 76/160/76 32/134/41
f 76/103/76 73/7/7 26/9/9
f 85/120/89 89/119/88 46/68/54
f 89/119/88 94/161/95 41/135/47
f 41/60/47 94/127/95 87/2/2
f 63/11/11 71/98/75 55/77/60
f 55/77/60 71/98/75 67/136/70
f 67/92/70 62/94/71 51/83/65
f 87/2/2 95/128/96 52/73/56
f 95/128/96 91/162/92 56/75/58
f 91/123/92 86/10/10 50/12/12
f 75/114/86 83/113/85 70/97/74
f 83/113/85 79/163/80 65/99/67
f 79/107/80 74/109/82 61/13/13
f 86/10/10 92/124/90 82/112/84
f 92/124/90 88/164/87 77/115/77
f 77/104/77 88/118/87 85/120/89
f 51/83/65 62/94/71 13/32/28
