# Blender v2.79 (sub 0) OBJ File: ''
# www.blender.org
mtllib star.mtl
o Circle
v 0.647158 -0.007590 -0.812021
v 0.669571 -0.007406 -0.797230
v 0.669571 0.007406 -0.797230
v 0.647158 0.007590 -0.812021
v 0.559154 -0.007406 -0.192342
v 0.568257 -0.006670 -0.164383
v 0.568257 0.006670 -0.164383
v 0.559154 0.007406 -0.192342
v 1.009358 -0.006670 0.302122
v 0.973352 -0.010453 0.319224
v 0.973352 0.010453 0.319224
v 1.009358 0.006670 0.302122
v 0.333383 -0.010453 0.348565
v 0.310439 -0.008653 0.365344
v 0.310439 0.008653 0.365344
v 0.333383 0.010453 0.348565
v -0.012743 0.275592 0.103953
v -0.045103 0.268949 0.095441
v -0.044454 0.275374 0.069501
v -0.043079 0.272146 0.038092
v -0.014584 0.274900 0.031411
v 0.014584 0.274900 0.031411
v 0.043079 0.272146 0.038092
v 0.044454 0.275374 0.069501
v 0.045103 0.268949 0.095441
v 0.012743 0.275592 0.103953
v 0.014584 -0.007590 -0.482404
v 0.014584 0.007590 -0.482404
v -0.014584 0.007590 -0.482404
v -0.014584 -0.007590 -0.482404
v -0.647159 -0.007590 -0.812021
v -0.647159 0.007590 -0.812021
v -0.669571 0.007406 -0.797230
v -0.669571 -0.007406 -0.797230
v -0.559155 -0.007406 -0.192342
v -0.559155 0.007406 -0.192342
v -0.568257 0.006670 -0.164383
v -0.568257 -0.006670 -0.164383
v -1.009358 -0.006670 0.302122
v -1.009358 0.006670 0.302122
v -0.973352 0.010453 0.319224
v -0.973352 -0.010453 0.319224
v -0.333383 -0.010453 0.348565
v -0.333383 0.010453 0.348565
v -0.310439 0.008653 0.365344
v -0.310439 -0.008653 0.365344
v 0.012743 -0.008653 1.038185
v -0.012743 -0.008653 1.038185
v -0.012743 0.008653 1.038185
v 0.012743 0.008653 1.038185
v -0.012743 -0.275592 0.103953
v 0.012743 -0.275592 0.103953
v 0.045103 -0.268949 0.095441
v 0.044454 -0.275374 0.069501
v 0.043079 -0.272146 0.038092
v 0.014584 -0.274900 0.031411
v -0.014584 -0.274900 0.031411
v -0.043079 -0.272146 0.038092
v -0.044454 -0.275374 0.069501
v -0.045103 -0.268949 0.095441
vt 0.651249 0.659306
vt 0.512155 0.537175
vt 0.512155 0.973680
vt 0.361153 0.659306
vt 0.500247 0.537175
vt 0.500247 0.973680
vt 0.350433 0.651466
vt 0.051417 0.637757
vt 0.485127 0.533197
vt 0.499387 0.263208
vt 0.203826 0.109200
vt 0.499387 0.503281
vt 0.193354 0.116111
vt 0.486073 0.506402
vt 0.244945 0.398735
vt 0.361153 0.659306
vt 0.500247 0.973680
vt 0.500247 0.537175
vt 0.350433 0.651466
vt 0.485127 0.533197
vt 0.051417 0.637757
vt 0.240691 0.411799
vt 0.034594 0.629766
vt 0.485430 0.521078
vt 0.240691 0.411799
vt 0.485430 0.521078
vt 0.034594 0.629766
vt 0.193354 0.116111
vt 0.244945 0.398735
vt 0.486073 0.506402
vt 0.661969 0.651466
vt 0.960984 0.637757
vt 0.527274 0.533197
vt 0.771710 0.411799
vt 0.526971 0.521078
vt 0.977808 0.629766
vt 0.819047 0.116111
vt 0.526329 0.506402
vt 0.767457 0.398735
vt 0.513015 0.263208
vt 0.513015 0.503281
vt 0.808576 0.109200
vt 0.513015 0.263208
vt 0.808576 0.109200
vt 0.513015 0.503281
vt 0.651249 0.659306
vt 0.512155 0.973680
vt 0.512155 0.537175
vt 0.661969 0.651466
vt 0.527274 0.533197
vt 0.960984 0.637757
vt 0.771710 0.411799
vt 0.977808 0.629766
vt 0.526971 0.521078
vt 0.819047 0.116111
vt 0.767457 0.398735
vt 0.526329 0.506402
vt 0.203826 0.109200
vt 0.499387 0.263208
vt 0.499387 0.503281
vn 0.5275 -0.8169 -0.2334
vn -0.5275 0.8169 -0.2334
vn -0.0319 0.7172 -0.6961
vn 0.2338 -0.8625 0.4487
vn -0.4857 0.8696 -0.0887
vn -0.5275 -0.8169 -0.2334
vn -0.0319 -0.7172 -0.6961
vn -0.3231 -0.8957 0.3055
vn -0.3231 0.8957 0.3055
vn -0.4857 -0.8696 -0.0887
vn 0.0319 -0.7172 -0.6961
vn 0.3231 -0.8957 0.3055
vn 0.4857 -0.8696 -0.0887
vn -0.2338 -0.8625 0.4487
vn -0.2338 0.8625 0.4487
vn 0.5275 0.8169 -0.2334
vn 0.0319 0.7172 -0.6961
vn 0.3231 0.8957 0.3055
vn 0.4857 0.8696 -0.0887
vn -0.5508 0.0000 0.8346
vn -0.9509 0.0000 0.3096
vn -0.4290 0.0000 -0.9033
vn -0.5903 0.0000 -0.8072
vn 0.0036 -0.9999 0.0096
vn 0.0000 0.0000 1.0000
vn 0.5508 0.0000 0.8346
vn 0.9509 0.0000 0.3096
vn 0.4290 0.0000 -0.9033
vn 0.5903 0.0000 -0.8072
vn -0.0000 0.0000 -1.0000
vn 0.0036 0.9999 0.0096
vn 0.4621 0.0000 0.8868
vn -0.9837 0.0000 -0.1796
vn -0.7266 0.0000 0.6870
vn -0.0458 0.0000 -0.9990
vn -0.9145 0.0000 -0.4046
vn 0.0000 -0.9615 -0.2747
vn -0.2977 -0.8165 -0.4947
vn -0.2092 -0.9504 -0.2302
vn -0.4139 -0.9035 0.1110
vn -0.1409 -0.9693 0.2015
vn 0.0000 -0.8871 0.4615
vn -0.0000 0.9615 -0.2747
vn -0.2977 0.8165 -0.4947
vn -0.2092 0.9504 -0.2302
vn -0.4139 0.9035 0.1110
vn -0.1409 0.9693 0.2015
vn -0.0000 0.8871 0.4615
vn -0.4621 0.0000 0.8868
vn 0.9837 0.0000 -0.1796
vn 0.7266 0.0000 0.6870
vn 0.0458 0.0000 -0.9990
vn 0.9145 -0.0000 -0.4046
vn 0.2977 -0.8165 -0.4947
vn 0.2092 -0.9504 -0.2302
vn 0.4139 -0.9035 0.1110
vn 0.1409 -0.9693 0.2015
vn 0.2977 0.8165 -0.4947
vn 0.2092 0.9504 -0.2302
vn 0.4139 0.9035 0.1110
vn 0.1409 0.9693 0.2015
vn 0.2338 0.8625 0.4487
vn -0.0000 -1.0000 0.0095
vn 0.2527 -0.9406 -0.2267
vn 0.1204 -0.9870 0.1067
vn -0.1204 -0.9870 0.1067
vn -0.2527 -0.9406 -0.2267
vn -0.0036 -0.9999 0.0096
vn 0.2527 0.9406 -0.2267
vn 0.0000 1.0000 0.0095
vn -0.0036 0.9999 0.0096
vn -0.2527 0.9406 -0.2267
vn -0.1204 0.9870 0.1067
vn 0.1204 0.9870 0.1067
usemtl None
s off
f 45/1/1 17/2/1 49/3/1
f 14/4/2 52/5/2 47/6/2
f 13/7/3 10/8/3 53/9/3
f 28/10/4 4/11/4 22/12/4
f 2/13/5 55/14/5 5/15/5
f 15/16/6 50/17/6 26/18/6
f 16/19/7 25/20/7 11/21/7
f 7/22/8 12/23/8 24/24/8
f 6/25/9 54/26/9 9/27/9
f 3/28/10 8/29/10 23/30/10
f 44/31/11 41/32/11 18/33/11
f 37/34/12 19/35/12 40/36/12
f 33/37/13 20/38/13 36/39/13
f 29/40/14 21/41/14 32/42/14
f 30/43/15 31/44/15 57/45/15
f 46/46/16 48/47/16 51/48/16
f 43/49/17 60/50/17 42/51/17
f 38/52/18 39/53/18 59/54/18
f 34/55/19 35/56/19 58/57/19
f 2/13/20 4/11/20 1/58/20
f 6/25/21 8/29/21 5/15/21
f 10/8/22 12/23/22 9/27/22
f 14/4/23 16/19/23 13/7/23
f 22/12/24 24/24/24 26/18/24
f 28/10/25 30/43/25 27/59/25
f 31/44/26 33/37/26 34/55/26
f 36/39/27 38/52/27 35/56/27
f 40/36/28 42/51/28 39/53/28
f 43/49/29 45/1/29 46/46/29
f 48/47/30 50/17/30 47/6/30
f 56/60/31 52/5/31 54/26/31
f 28/10/32 1/58/32 4/11/32
f 3/28/33 5/15/33 8/29/33
f 7/22/34 9/27/34 12/23/34
f 11/21/35 13/7/35 16/19/35
f 15/16/36 47/6/36 50/17/36
f 49/3/37 26/18/37 50/17/37
f 25/20/38 15/16/38 26/18/38
f 11/21/39 24/24/39 12/23/39
f 7/22/40 23/30/40 8/29/40
f 23/30/41 4/11/41 3/28/41
f 22/12/42 29/40/42 28/10/42
f 47/6/43 51/48/43 48/47/43
f 14/4/44 53/9/44 52/5/44
f 54/26/45 10/8/45 9/27/45
f 55/14/46 6/25/46 5/15/46
f 1/58/47 55/14/47 2/13/47
f 57/45/48 27/59/48 30/43/48
f 30/43/49 32/42/49 31/44/49
f 34/55/50 36/39/50 35/56/50
f 38/52/51 40/36/51 39/53/51
f 42/51/52 44/31/52 43/49/52
f 46/46/53 49/3/53 48/47/53
f 45/1/54 18/33/54 17/2/54
f 19/35/55 41/32/55 40/36/55
f 20/38/56 37/34/56 36/39/56
f 32/42/57 20/38/57 33/37/57
f 60/50/58 46/46/58 51/48/58
f 42/51/59 59/54/59 39/53/59
f 38/52/60 58/57/60 35/56/60
f 58/57/61 31/44/61 34/55/61
f 27/59/62 56/60/62 1/58/62
f 2/13/20 3/28/20 4/11/20
f 6/25/21 7/22/21 8/29/21
f 10/8/22 11/21/22 12/23/22
f 14/4/23 15/16/23 16/19/23
f 26/18/63 17/2/63 21/41/63
f 17/2/64 18/33/64 19/35/64
f 19/35/65 20/38/65 21/41/65
f 21/41/63 22/12/63 26/18/63
f 22/12/66 23/30/66 24/24/66
f 24/24/67 25/20/67 26/18/67
f 17/2/68 19/35/68 21/41/68
f 28/10/25 29/40/25 30/43/25
f 31/44/26 32/42/26 33/37/26
f 36/39/27 37/34/27 38/52/27
f 40/36/28 41/32/28 42/51/28
f 43/49/29 44/31/29 45/1/29
f 48/47/30 49/3/30 50/17/30
f 60/50/69 51/48/69 59/54/69
f 51/48/70 52/5/70 57/45/70
f 59/54/71 51/48/71 57/45/71
f 52/5/72 53/9/72 54/26/72
f 54/26/73 55/14/73 56/60/73
f 56/60/70 57/45/70 52/5/70
f 57/45/74 58/57/74 59/54/74
f 28/10/32 27/59/32 1/58/32
f 3/28/33 2/13/33 5/15/33
f 7/22/34 6/25/34 9/27/34
f 11/21/35 10/8/35 13/7/35
f 15/16/36 14/4/36 47/6/36
f 49/3/37 17/2/37 26/18/37
f 25/20/38 16/19/38 15/16/38
f 11/21/39 25/20/39 24/24/39
f 7/22/40 24/24/40 23/30/40
f 23/30/41 22/12/41 4/11/41
f 22/12/42 21/41/42 29/40/42
f 47/6/43 52/5/43 51/48/43
f 14/4/44 13/7/44 53/9/44
f 54/26/45 53/9/45 10/8/45
f 55/14/46 54/26/46 6/25/46
f 1/58/47 56/60/47 55/14/47
f 57/45/48 56/60/48 27/59/48
f 30/43/49 29/40/49 32/42/49
f 34/55/50 33/37/50 36/39/50
f 38/52/51 37/34/51 40/36/51
f 42/51/52 41/32/52 44/31/52
f 46/46/53 45/1/53 49/3/53
f 45/1/54 44/31/54 18/33/54
f 19/35/55 18/33/55 41/32/55
f 20/38/56 19/35/56 37/34/56
f 32/42/57 21/41/57 20/38/57
f 60/50/58 43/49/58 46/46/58
f 42/51/59 60/50/59 59/54/59
f 38/52/60 59/54/60 58/57/60
f 58/57/61 57/45/61 31/44/61
