# Blender v2.79 (sub 0) OBJ File: ''
# www.blender.org
mtllib switchDown.mtl
o Cube.001
v -1.000000 0.973000 -0.973000
v -1.000000 -0.973000 -0.772772
v -1.000000 0.973000 -0.772772
v 0.934816 -0.973000 -0.745772
v -0.867913 -0.906097 -0.745772
v -0.934816 -0.973000 -0.745772
v -0.973000 0.973000 -1.000000
v 0.973000 -0.973000 -1.000000
v -0.973000 -0.973000 -1.000000
v 0.973000 -1.000000 -0.973000
v -0.973000 -1.000000 -0.772772
v -0.973000 -1.000000 -0.973000
v 0.934817 0.972999 -0.745772
v -0.867912 0.906097 -0.745772
v 0.867913 0.906096 -0.745772
v 1.000000 0.972999 -0.772772
v 1.000000 -0.973000 -0.973000
v 1.000000 0.973000 -0.973000
v 0.852096 -0.879097 -0.718772
v -0.852097 -0.879097 -0.659264
v -0.852097 -0.879097 -0.718772
v -0.973000 -0.934816 -0.745772
v -0.906096 0.867913 -0.745772
v -0.972999 0.934817 -0.745772
v -0.852096 0.879097 -0.718772
v 0.852097 0.879096 -0.659264
v 0.852097 0.879096 -0.718772
v 0.973001 0.934816 -0.745772
v 0.906096 -0.867913 -0.745772
v 0.973000 -0.934817 -0.745772
v -0.879097 -0.852097 -0.718772
v -0.879096 0.852097 -0.659264
v -0.879096 0.852097 -0.718772
v -0.852097 -0.852097 -0.647288
v 0.852097 0.852096 -0.647288
v -0.852096 0.852097 -0.647288
v 0.879097 0.852096 -0.718772
v 0.879096 -0.852097 -0.659264
v 0.879096 -0.852097 -0.718772
v -0.973000 1.000000 -0.973000
v 0.973000 1.000000 -0.973000
v 0.973000 0.973000 -1.000000
v -1.000000 -0.973000 -0.973000
v -0.973000 1.000000 -0.772772
v 0.973000 -1.000000 -0.772772
v 0.906097 0.867912 -0.745772
v -0.906097 -0.867913 -0.745772
v 0.867913 -0.906097 -0.745772
v -0.852096 0.879097 -0.659264
v 0.879097 0.852096 -0.659264
v -0.879097 -0.852097 -0.659264
v 0.852096 -0.852097 -0.647288
v 0.852096 -0.879097 -0.659264
v 0.973001 0.999999 -0.772772
v 1.000000 -0.973000 -0.772772
v -0.934816 0.973000 -0.745772
vt 0.819070 0.164131
vt 0.509572 0.787645
vt 0.819070 0.787645
vt 0.509572 0.871723
vt 0.520212 0.871723
vt 0.509572 0.871723
vt 0.819070 0.080052
vt 0.509572 0.080053
vt 0.509572 0.080052
vt 0.505278 0.164132
vt 0.505278 0.787645
vt 0.505278 0.164131
vt 0.819070 0.871723
vt 0.808429 0.871723
vt 0.808429 0.871723
vt 0.819070 0.787645
vt 0.509572 0.164132
vt 0.819070 0.164132
vt 0.128418 0.152938
vt 0.128418 0.834660
vt 0.128418 0.152937
vt 0.515645 0.871723
vt 0.802357 0.871723
vt 0.812997 0.871723
vt 0.307310 0.152937
vt 0.307310 0.834661
vt 0.307310 0.152938
vt 0.812997 0.871723
vt 0.526285 0.871723
vt 0.515645 0.871723
vt 0.131165 0.152937
vt 0.304563 0.834660
vt 0.304563 0.152937
vt 0.131165 0.894392
vt 0.304563 0.894393
vt 0.304563 0.894392
vt 0.304563 0.152938
vt 0.131165 0.834661
vt 0.131165 0.152938
vt 0.823364 0.164131
vt 0.823364 0.164132
vt 0.819070 0.080053
vt 0.509572 0.164131
vt 0.823364 0.787645
vt 0.505277 0.787645
vt 0.310057 0.093205
vt 0.306172 0.093206
vt 0.310057 0.093206
vt 0.129556 0.093205
vt 0.125671 0.093206
vt 0.129556 0.093206
vt 0.307310 0.834660
vt 0.304563 0.834661
vt 0.131165 0.834660
vt 0.131165 0.894393
vt 0.128418 0.834661
vt 0.823364 0.787645
vt 0.509572 0.787645
vt 0.819070 0.871723
vt 0.306172 0.093205
vt 0.125671 0.093205
vt 0.802356 0.871723
vt 0.520212 0.871723
vt 0.526285 0.871723
vn -1.0000 -0.0000 0.0000
vn 0.0000 0.0000 1.0000
vn -0.0000 0.0000 -1.0000
vn 0.0000 -1.0000 0.0000
vn 1.0000 0.0000 0.0000
vn 0.0000 1.0000 0.0000
vn -0.5774 0.5774 -0.5774
vn 0.5773 0.5773 -0.5774
vn 0.5774 -0.5773 -0.5774
vn -0.5774 -0.5774 -0.5774
vn -0.3574 0.3574 0.8629
vn 0.3574 0.3574 0.8629
vn 0.3574 -0.3574 0.8629
vn -0.3574 -0.3574 0.8629
vn -0.4706 0.4706 0.7463
vn 0.4706 0.4706 0.7463
vn -0.4706 -0.4706 0.7463
vn 0.4706 -0.4706 0.7463
vn -0.3758 0.3758 0.8471
vn 0.3757 0.3758 0.8471
vn -0.3757 -0.3758 0.8471
vn 0.3757 -0.3757 0.8471
vn -0.0000 0.7071 -0.7071
vn -0.7071 -0.0000 -0.7071
vn -0.7071 0.7071 0.0000
vn 0.7071 0.0000 -0.7071
vn 0.7071 0.7071 0.0000
vn 0.0000 -0.7071 -0.7071
vn 0.7071 -0.7071 0.0000
vn -0.7071 -0.7071 0.0000
vn 0.0000 0.7071 0.7071
vn -0.7071 0.0000 0.7071
vn 0.7071 0.0000 0.7071
vn 0.0000 -0.7071 0.7071
vn 0.0000 0.4055 0.9141
vn -0.4055 0.0000 0.9141
vn 0.4055 -0.0000 0.9141
vn 0.0000 -0.4055 0.9141
usemtl Material.001
s 1
f 1/1/1 2/2/1 3/3/1
f 4/4/2 5/5/2 6/6/2
f 7/7/3 8/8/3 9/9/3
f 10/10/4 11/11/4 12/12/4
f 13/13/2 14/14/2 15/15/2
f 16/16/5 17/17/5 18/18/5
f 19/19/4 20/20/4 21/21/4
f 22/22/2 23/23/2 24/24/2
f 25/25/6 26/26/6 27/27/6
f 28/28/2 29/29/2 30/30/2
f 31/31/1 32/32/1 33/33/1
f 34/34/2 35/35/2 36/36/2
f 37/37/5 38/38/5 39/39/5
f 40/40/7 7/7/7 1/1/7
f 41/41/8 18/18/8 42/42/8
f 17/17/9 10/10/9 8/8/9
f 43/43/10 9/9/10 12/12/10
f 24/24/11 44/44/11 3/3/11
f 16/16/12 13/13/12 28/28/12
f 45/45/13 30/30/13 4/4/13
f 6/6/14 2/2/14 11/11/14
f 14/46/15 33/33/15 25/25/15
f 27/27/16 46/47/16 15/48/16
f 47/49/17 21/21/17 31/31/17
f 39/39/18 48/50/18 29/51/18
f 49/52/19 32/32/19 36/36/19
f 26/26/20 35/35/20 50/53/20
f 51/54/21 20/20/21 34/34/21
f 38/38/22 52/55/22 53/56/22
f 41/41/23 7/7/23 40/40/23
f 9/9/24 1/1/24 7/7/24
f 3/3/25 40/40/25 1/1/25
f 17/17/26 42/42/26 18/18/26
f 54/57/27 18/18/27 41/41/27
f 12/12/28 8/8/28 10/10/28
f 55/58/29 10/10/29 17/17/29
f 12/12/30 2/2/30 43/43/30
f 13/13/31 44/44/31 56/59/31
f 2/2/32 24/24/32 3/3/32
f 30/30/33 16/16/33 28/28/33
f 6/6/34 45/45/34 4/4/34
f 27/27/31 14/46/31 25/25/31
f 47/49/32 33/33/32 23/60/32
f 39/39/33 46/47/33 37/37/33
f 19/19/34 5/61/34 48/50/34
f 13/13/2 46/62/2 28/28/2
f 4/4/2 29/29/2 48/63/2
f 24/24/2 14/14/2 56/59/2
f 22/22/2 5/5/2 47/64/2
f 35/35/35 49/52/35 36/36/35
f 51/54/36 36/36/36 32/32/36
f 52/55/37 50/53/37 35/35/37
f 34/34/38 53/56/38 52/55/38
f 26/26/27 37/37/27 27/27/27
f 19/19/29 38/38/29 53/56/29
f 32/32/25 25/25/25 33/33/25
f 31/31/30 20/20/30 51/54/30
f 44/44/6 41/41/6 40/40/6
f 1/1/1 43/43/1 2/2/1
f 4/4/2 48/63/2 5/5/2
f 7/7/3 42/42/3 8/8/3
f 10/10/4 45/45/4 11/11/4
f 13/13/2 56/59/2 14/14/2
f 16/16/5 55/58/5 17/17/5
f 19/19/4 53/56/4 20/20/4
f 22/22/2 47/64/2 23/23/2
f 25/25/6 49/52/6 26/26/6
f 28/28/2 46/62/2 29/29/2
f 31/31/1 51/54/1 32/32/1
f 34/34/2 52/55/2 35/35/2
f 37/37/5 50/53/5 38/38/5
f 24/24/11 56/59/11 44/44/11
f 16/16/12 54/57/12 13/13/12
f 45/45/13 55/58/13 30/30/13
f 6/6/14 22/22/14 2/2/14
f 14/46/15 23/60/15 33/33/15
f 27/27/16 37/37/16 46/47/16
f 47/49/17 5/61/17 21/21/17
f 39/39/18 19/19/18 48/50/18
f 41/41/23 42/42/23 7/7/23
f 9/9/24 43/43/24 1/1/24
f 3/3/25 44/44/25 40/40/25
f 17/17/26 8/8/26 42/42/26
f 54/57/27 16/16/27 18/18/27
f 12/12/28 9/9/28 8/8/28
f 55/58/29 45/45/29 10/10/29
f 12/12/30 11/11/30 2/2/30
f 13/13/31 54/57/31 44/44/31
f 2/2/32 22/22/32 24/24/32
f 30/30/33 55/58/33 16/16/33
f 6/6/34 11/11/34 45/45/34
f 27/27/31 15/48/31 14/46/31
f 47/49/32 31/31/32 33/33/32
f 39/39/33 29/51/33 46/47/33
f 19/19/34 21/21/34 5/61/34
f 13/13/2 15/15/2 46/62/2
f 4/4/2 30/30/2 29/29/2
f 24/24/2 23/23/2 14/14/2
f 22/22/2 6/6/2 5/5/2
f 35/35/35 26/26/35 49/52/35
f 51/54/36 34/34/36 36/36/36
f 52/55/37 38/38/37 50/53/37
f 34/34/38 20/20/38 53/56/38
f 26/26/27 50/53/27 37/37/27
f 19/19/29 39/39/29 38/38/29
f 32/32/25 49/52/25 25/25/25
f 31/31/30 21/21/30 20/20/30
f 44/44/6 54/57/6 41/41/6
