# Blender v2.79 (sub 0) OBJ File: ''
# www.blender.org
mtllib coin.mtl
o Circle
v 0.093020 0.000000 -1.000000
v 0.093020 0.707107 -0.707107
v 0.093020 1.000000 0.000000
v 0.093020 0.707107 0.707107
v 0.093020 -0.000000 1.000000
v 0.093020 -0.707107 0.707107
v 0.093020 -1.000000 -0.000000
v 0.093020 -0.707107 -0.707107
v 0.092052 -0.000000 -0.280203
v 0.092052 0.198133 -0.198133
v 0.092052 0.280203 0.000000
v 0.092052 0.198133 0.198133
v 0.092052 -0.000000 0.280203
v 0.092052 -0.198133 0.198133
v 0.092052 -0.280203 -0.000000
v 0.092052 -0.198133 -0.198133
v 0.000000 0.000000 -1.000000
v 0.000000 0.707107 -0.707107
v 0.000000 1.000000 0.000000
v 0.000000 0.707107 0.707107
v 0.000000 -0.000000 1.000000
v 0.000000 -0.707107 0.707107
v 0.000000 -1.000000 -0.000000
v 0.000000 -0.707107 -0.707107
v -0.093020 0.000000 -1.000000
v -0.093020 0.707107 -0.707107
v -0.093020 1.000000 0.000000
v -0.093020 0.707107 0.707107
v -0.093020 -0.000000 1.000000
v -0.093020 -0.707107 0.707107
v -0.093020 -1.000000 -0.000000
v -0.093020 -0.707107 -0.707107
v -0.092052 -0.000000 -0.280203
v -0.092052 0.198133 -0.198133
v -0.092052 0.280203 0.000000
v -0.092052 0.198133 0.198133
v -0.092052 -0.000000 0.280203
v -0.092052 -0.198133 0.198133
v -0.092052 -0.280203 -0.000000
v -0.092052 -0.198133 -0.198133
v 0.000000 -0.000000 -0.280203
v 0.000000 0.198133 -0.198133
v 0.000000 0.280203 0.000000
v 0.000000 0.198133 0.198133
v 0.000000 -0.000000 0.280203
v 0.000000 -0.198133 0.198133
v 0.000000 -0.280203 -0.000000
v 0.000000 -0.198133 -0.198133
vt 0.500000 0.012626
vt 0.844625 0.155375
vt 0.844625 0.155375
vt 0.012626 0.500000
vt 0.155375 0.155375
vt 0.155375 0.155375
vt 0.500000 0.987374
vt 0.155375 0.844625
vt 0.155375 0.844625
vt 0.987374 0.500000
vt 0.844625 0.844625
vt 0.844625 0.844625
vt 0.987374 0.500000
vt 0.500000 0.012626
vt 0.012626 0.500000
vt 0.500000 0.987374
vt 0.500000 0.363436
vt 0.403435 0.596565
vt 0.363436 0.500000
vt 0.500000 0.636564
vt 0.596565 0.403435
vt 0.403435 0.403435
vt 0.596565 0.596565
vt 0.636564 0.500000
vt 0.596565 0.596565
vt 0.636564 0.500000
vt 0.500000 0.363436
vt 0.363436 0.500000
vt 0.500000 0.636564
vt 0.596565 0.403435
vt 0.403435 0.403435
vt 0.403435 0.596565
vt 0.844625 0.155375
vt 0.155375 0.155375
vt 0.155375 0.844625
vt 0.844625 0.844625
vt 0.987374 0.500000
vt 0.500000 0.012626
vt 0.012626 0.500000
vt 0.500000 0.987374
vt 0.500000 0.363436
vt 0.403435 0.596565
vt 0.500000 0.636564
vt 0.363436 0.500000
vt 0.596565 0.596565
vt 0.636564 0.500000
vt 0.596565 0.403435
vt 0.403435 0.403435
vn 0.0000 0.9239 0.3827
vn 0.0000 0.3827 -0.9239
vn 0.0000 -0.9239 -0.3827
vn 0.0000 -0.3827 0.9239
vn 0.0000 0.3827 0.9239
vn 0.0000 0.9239 -0.3827
vn 0.0000 -0.3827 -0.9239
vn 0.0000 -0.9239 0.3827
vn -1.0000 -0.0013 0.0006
vn -1.0000 0.0006 0.0013
vn -1.0000 0.0013 -0.0006
vn -1.0000 -0.0013 -0.0006
vn -1.0000 -0.0006 0.0013
vn -1.0000 0.0013 0.0006
vn -1.0000 0.0006 -0.0013
vn -1.0000 -0.0006 -0.0013
vn 1.0000 -0.0013 0.0006
vn 1.0000 0.0006 0.0013
vn 1.0000 0.0013 -0.0006
vn 1.0000 -0.0013 -0.0006
vn 1.0000 -0.0006 0.0013
vn 1.0000 0.0013 0.0006
vn 1.0000 0.0006 -0.0013
vn 1.0000 -0.0006 -0.0013
usemtl None
s off
f 23/1/1 8/2/1 24/3/1
f 21/4/2 6/5/2 22/6/2
f 19/7/3 4/8/3 20/9/3
f 17/10/4 2/11/4 18/12/4
f 24/3/5 1/13/5 17/10/5
f 22/6/6 7/14/6 23/1/6
f 20/9/7 5/15/7 21/4/7
f 18/12/8 3/16/8 19/7/8
f 6/5/9 15/17/9 7/14/9
f 5/15/10 12/18/10 13/19/10
f 2/11/11 11/20/11 3/16/11
f 8/2/12 15/17/12 16/21/12
f 6/5/13 13/19/13 14/22/13
f 4/8/14 11/20/14 12/18/14
f 1/13/15 10/23/15 2/11/15
f 8/2/16 9/24/16 1/13/16
f 9/24/2 42/25/2 10/23/2
f 16/21/7 41/26/7 9/24/7
f 14/22/8 47/27/8 15/17/8
f 12/18/5 45/28/5 13/19/5
f 10/23/6 43/29/6 11/20/6
f 15/17/3 48/30/3 16/21/3
f 13/19/4 46/31/4 14/22/4
f 11/20/1 44/32/1 12/18/1
f 32/33/1 23/1/1 24/3/1
f 30/34/2 21/4/2 22/6/2
f 28/35/3 19/7/3 20/9/3
f 26/36/4 17/10/4 18/12/4
f 25/37/5 24/3/5 17/10/5
f 31/38/6 22/6/6 23/1/6
f 29/39/7 20/9/7 21/4/7
f 27/40/8 18/12/8 19/7/8
f 39/41/17 30/34/17 31/38/17
f 29/39/18 36/42/18 28/35/18
f 35/43/19 26/36/19 27/40/19
f 32/33/20 39/41/20 31/38/20
f 30/34/21 37/44/21 29/39/21
f 28/35/22 35/43/22 27/40/22
f 34/45/23 25/37/23 26/36/23
f 33/46/24 32/33/24 25/37/24
f 42/25/2 33/46/2 34/45/2
f 41/26/7 40/47/7 33/46/7
f 47/27/8 38/48/8 39/41/8
f 37/44/5 44/32/5 36/42/5
f 43/29/6 34/45/6 35/43/6
f 48/30/3 39/41/3 40/47/3
f 46/31/4 37/44/4 38/48/4
f 44/32/1 35/43/1 36/42/1
f 23/1/1 7/14/1 8/2/1
f 21/4/2 5/15/2 6/5/2
f 19/7/3 3/16/3 4/8/3
f 17/10/4 1/13/4 2/11/4
f 24/3/5 8/2/5 1/13/5
f 22/6/6 6/5/6 7/14/6
f 20/9/7 4/8/7 5/15/7
f 18/12/8 2/11/8 3/16/8
f 6/5/9 14/22/9 15/17/9
f 5/15/10 4/8/10 12/18/10
f 2/11/11 10/23/11 11/20/11
f 8/2/12 7/14/12 15/17/12
f 6/5/13 5/15/13 13/19/13
f 4/8/14 3/16/14 11/20/14
f 1/13/15 9/24/15 10/23/15
f 8/2/16 16/21/16 9/24/16
f 9/24/2 41/26/2 42/25/2
f 16/21/7 48/30/7 41/26/7
f 14/22/8 46/31/8 47/27/8
f 12/18/5 44/32/5 45/28/5
f 10/23/6 42/25/6 43/29/6
f 15/17/3 47/27/3 48/30/3
f 13/19/4 45/28/4 46/31/4
f 11/20/1 43/29/1 44/32/1
f 32/33/1 31/38/1 23/1/1
f 30/34/2 29/39/2 21/4/2
f 28/35/3 27/40/3 19/7/3
f 26/36/4 25/37/4 17/10/4
f 25/37/5 32/33/5 24/3/5
f 31/38/6 30/34/6 22/6/6
f 29/39/7 28/35/7 20/9/7
f 27/40/8 26/36/8 18/12/8
f 39/41/17 38/48/17 30/34/17
f 29/39/18 37/44/18 36/42/18
f 35/43/19 34/45/19 26/36/19
f 32/33/20 40/47/20 39/41/20
f 30/34/21 38/48/21 37/44/21
f 28/35/22 36/42/22 35/43/22
f 34/45/23 33/46/23 25/37/23
f 33/46/24 40/47/24 32/33/24
f 42/25/2 41/26/2 33/46/2
f 41/26/7 48/30/7 40/47/7
f 47/27/8 46/31/8 38/48/8
f 37/44/5 45/28/5 44/32/5
f 43/29/6 42/25/6 34/45/6
f 48/30/3 47/27/3 39/41/3
f 46/31/4 45/28/4 37/44/4
f 44/32/1 43/29/1 35/43/1
