# Blender v2.79 (sub 0) OBJ File: ''
# www.blender.org
mtllib coin.mtl
o Cube
v 0.000000 0.100461 -1.000000
v -0.707107 0.100461 -0.707107
v -1.000000 0.100461 0.000000
v -0.707107 0.100461 0.707107
v 0.000000 0.100461 1.000000
v 0.707107 0.100461 0.707107
v 1.000000 0.100461 -0.000000
v 0.707107 0.100461 -0.707107
v -0.000000 0.100461 -0.947594
v -0.670050 0.100461 -0.670050
v -0.947594 0.100461 0.000000
v -0.670050 0.100461 0.670050
v 0.000000 0.100461 0.947594
v 0.670051 0.100461 0.670050
v 0.947594 0.100461 -0.000000
v 0.670051 0.100461 -0.670050
v -0.000000 0.038511 -0.947594
v -0.670050 0.038511 -0.670050
v -0.947594 0.038511 0.000000
v -0.670050 0.038511 0.670050
v 0.000000 0.038511 0.947594
v 0.670051 0.038511 0.670050
v 0.947594 0.038511 -0.000000
v 0.670051 0.038511 -0.670050
v -0.000000 0.073953 -0.642265
v -0.454150 0.073953 -0.454150
v -0.642265 0.073953 0.000000
v -0.454150 0.073953 0.454150
v 0.000000 0.073953 0.642265
v 0.454150 0.073953 0.454150
v 0.642265 0.073953 -0.000000
v 0.454150 0.073953 -0.454150
v 0.000000 0.072276 -0.300081
v -0.212189 0.072276 -0.212189
v -0.300081 0.072276 0.000000
v -0.212189 0.072276 0.212189
v 0.000000 0.072276 0.300081
v 0.212189 0.072276 0.212189
v 0.300081 0.072276 -0.000000
v 0.212189 0.072276 -0.212189
v 0.000000 0.036416 -0.166820
v -0.117959 0.036416 -0.117959
v -0.166820 0.036416 0.000000
v -0.117959 0.036416 0.117959
v 0.000000 0.036416 0.166820
v 0.117959 0.036416 0.117959
v 0.166820 0.036416 0.000000
v 0.117959 0.036416 -0.117959
v 0.000000 0.000000 -1.000000
v -0.707107 0.000000 -0.707107
v -1.000000 0.000000 0.000000
v -0.707107 0.000000 0.707107
v 0.000000 0.000000 1.000000
v 0.707107 0.000000 0.707107
v 1.000000 0.000000 -0.000000
v 0.707107 0.000000 -0.707107
v 0.000000 -0.100461 -1.000000
v -0.707107 -0.100461 -0.707107
v -1.000000 -0.100461 0.000000
v -0.707107 -0.100461 0.707107
v 0.000000 -0.100461 1.000000
v 0.707107 -0.100461 0.707107
v 1.000000 -0.100461 -0.000000
v 0.707107 -0.100461 -0.707107
v -0.000000 -0.100461 -0.947594
v -0.670050 -0.100461 -0.670050
v -0.947594 -0.100461 0.000000
v -0.670050 -0.100461 0.670050
v 0.000000 -0.100461 0.947594
v 0.670051 -0.100461 0.670050
v 0.947594 -0.100461 -0.000000
v 0.670051 -0.100461 -0.670050
v -0.000000 -0.038511 -0.947594
v -0.670050 -0.038511 -0.670050
v -0.947594 -0.038511 0.000000
v -0.670050 -0.038511 0.670050
v 0.000000 -0.038511 0.947594
v 0.670051 -0.038511 0.670050
v 0.947594 -0.038511 -0.000000
v 0.670051 -0.038511 -0.670050
v -0.000000 -0.073953 -0.642265
v -0.454150 -0.073953 -0.454150
v -0.642265 -0.073953 0.000000
v -0.454150 -0.073953 0.454150
v 0.000000 -0.073953 0.642265
v 0.454150 -0.073953 0.454150
v 0.642265 -0.073953 -0.000000
v 0.454150 -0.073953 -0.454150
v 0.000000 -0.072276 -0.300081
v -0.212189 -0.072276 -0.212189
v -0.300081 -0.072276 0.000000
v -0.212189 -0.072276 0.212189
v 0.000000 -0.072276 0.300081
v 0.212189 -0.072276 0.212189
v 0.300081 -0.072276 -0.000000
v 0.212189 -0.072276 -0.212189
v 0.000000 -0.036416 -0.166820
v -0.117959 -0.036416 -0.117959
v -0.166820 -0.036416 0.000000
v -0.117959 -0.036416 0.117959
v 0.000000 -0.036416 0.166820
v 0.117959 -0.036416 0.117959
v 0.166820 -0.036416 0.000000
v 0.117959 -0.036416 -0.117959
v 0.000000 0.000000 -0.126462
v -0.089422 0.000000 -0.089422
v -0.126462 0.000000 0.000000
v -0.089422 0.000000 0.089422
v 0.000000 0.000000 0.126462
v 0.089422 0.000000 0.089422
v 0.126462 0.000000 0.000000
v 0.089422 0.000000 -0.089422
vn 0.3827 0.0000 -0.9239
vn 0.9239 0.0000 0.3827
vn -0.9239 0.0000 0.3827
vn -0.3827 0.0000 -0.9239
vn 0.9239 0.0000 -0.3827
vn 0.3827 0.0000 0.9239
vn -0.3827 0.0000 0.9239
vn -0.9239 0.0000 -0.3827
vn 0.0000 -1.0000 0.0000
vn -0.0477 -0.9922 0.1152
vn -0.1152 -0.9922 -0.0477
vn 0.0477 -0.9922 -0.1152
vn 0.1152 -0.9922 0.0477
vn -0.1152 -0.9922 0.0477
vn -0.0477 -0.9922 -0.1152
vn 0.1152 -0.9922 -0.0477
vn 0.0477 -0.9922 0.1152
vn -0.0049 -1.0000 0.0020
vn -0.0020 -1.0000 -0.0049
vn 0.0020 -1.0000 -0.0049
vn 0.0049 -1.0000 0.0020
vn -0.0020 -1.0000 0.0049
vn -0.0049 -1.0000 -0.0020
vn 0.0049 -1.0000 -0.0020
vn 0.0020 -1.0000 0.0049
vn 0.2584 -0.9601 -0.1070
vn 0.1070 -0.9601 0.2584
vn -0.2584 -0.9601 0.1070
vn -0.1070 -0.9601 -0.2584
vn 0.1070 -0.9601 -0.2584
vn 0.2584 -0.9601 0.1070
vn -0.1070 -0.9601 0.2584
vn -0.2584 -0.9601 -0.1070
vn -0.2674 -0.7154 0.6455
vn -0.6455 -0.7154 -0.2674
vn 0.6455 -0.7154 -0.2674
vn 0.2674 -0.7154 0.6455
vn -0.6455 -0.7154 0.2674
vn -0.2674 -0.7154 -0.6455
vn 0.2674 -0.7154 -0.6455
vn 0.6455 -0.7154 0.2674
vn 0.0000 1.0000 0.0000
vn -0.0477 0.9922 0.1152
vn -0.1152 0.9922 -0.0477
vn 0.0477 0.9922 -0.1152
vn 0.1152 0.9922 0.0477
vn -0.1152 0.9922 0.0477
vn -0.0477 0.9922 -0.1152
vn 0.1152 0.9922 -0.0477
vn 0.0477 0.9922 0.1152
vn -0.0049 1.0000 0.0020
vn -0.0020 1.0000 -0.0049
vn 0.0020 1.0000 -0.0049
vn 0.0049 1.0000 0.0020
vn -0.0020 1.0000 0.0049
vn -0.0049 1.0000 -0.0020
vn 0.0049 1.0000 -0.0020
vn 0.0020 1.0000 0.0049
vn 0.2584 0.9601 -0.1070
vn 0.1070 0.9601 0.2584
vn -0.2584 0.9601 0.1070
vn -0.1070 0.9601 -0.2584
vn 0.1070 0.9601 -0.2584
vn 0.2584 0.9601 0.1070
vn -0.1070 0.9601 0.2584
vn -0.2584 0.9601 -0.1070
vn -0.2674 0.7154 0.6455
vn -0.6455 0.7154 -0.2674
vn 0.6455 0.7154 -0.2674
vn 0.2674 0.7154 0.6455
vn -0.6455 0.7154 0.2674
vn -0.2674 0.7154 -0.6455
vn 0.2674 0.7154 -0.6455
vn 0.6455 0.7154 0.2674
usemtl Material
s off
f 52//1 5//1 53//1
f 50//2 3//2 51//2
f 55//3 8//3 56//3
f 53//4 6//4 54//4
f 51//5 4//5 52//5
f 49//6 2//6 50//6
f 56//7 1//7 49//7
f 54//8 7//8 55//8
f 7//9 16//9 8//9
f 5//9 14//9 6//9
f 4//9 11//9 12//9
f 2//9 9//9 10//9
f 8//9 9//9 1//9
f 6//9 15//9 7//9
f 4//9 13//9 5//9
f 2//9 11//9 3//9
f 10//8 19//8 11//8
f 15//5 24//5 16//5
f 13//6 22//6 14//6
f 11//3 20//3 12//3
f 9//4 18//4 10//4
f 16//1 17//1 9//1
f 14//2 23//2 15//2
f 12//7 21//7 13//7
f 24//10 25//10 17//10
f 22//11 31//11 23//11
f 20//12 29//12 21//12
f 18//13 27//13 19//13
f 23//14 32//14 24//14
f 22//15 29//15 30//15
f 20//16 27//16 28//16
f 17//17 26//17 18//17
f 27//18 36//18 28//18
f 26//19 33//19 34//19
f 32//20 33//20 25//20
f 30//21 39//21 31//21
f 28//22 37//22 29//22
f 26//23 35//23 27//23
f 31//24 40//24 32//24
f 29//25 38//25 30//25
f 39//26 48//26 40//26
f 37//27 46//27 38//27
f 35//28 44//28 36//28
f 33//29 42//29 34//29
f 33//30 48//30 41//30
f 38//31 47//31 39//31
f 36//32 45//32 37//32
f 34//33 43//33 35//33
f 44//34 109//34 45//34
f 42//35 107//35 43//35
f 47//36 112//36 48//36
f 45//37 110//37 46//37
f 43//38 108//38 44//38
f 41//39 106//39 42//39
f 48//40 105//40 41//40
f 46//41 111//41 47//41
f 61//1 52//1 53//1
f 59//2 50//2 51//2
f 64//3 55//3 56//3
f 62//4 53//4 54//4
f 60//5 51//5 52//5
f 58//6 49//6 50//6
f 57//7 56//7 49//7
f 63//8 54//8 55//8
f 72//42 63//42 64//42
f 70//42 61//42 62//42
f 68//42 59//42 60//42
f 66//42 57//42 58//42
f 57//42 72//42 64//42
f 71//42 62//42 63//42
f 69//42 60//42 61//42
f 67//42 58//42 59//42
f 75//8 66//8 67//8
f 80//5 71//5 72//5
f 78//6 69//6 70//6
f 76//3 67//3 68//3
f 74//4 65//4 66//4
f 73//1 72//1 65//1
f 79//2 70//2 71//2
f 77//7 68//7 69//7
f 81//43 80//43 73//43
f 87//44 78//44 79//44
f 85//45 76//45 77//45
f 83//46 74//46 75//46
f 88//47 79//47 80//47
f 78//48 85//48 77//48
f 84//49 75//49 76//49
f 82//50 73//50 74//50
f 84//51 91//51 83//51
f 82//52 89//52 81//52
f 89//53 88//53 81//53
f 95//54 86//54 87//54
f 93//55 84//55 85//55
f 91//56 82//56 83//56
f 96//57 87//57 88//57
f 94//58 85//58 86//58
f 104//59 95//59 96//59
f 102//60 93//60 94//60
f 100//61 91//61 92//61
f 98//62 89//62 90//62
f 97//63 96//63 89//63
f 103//64 94//64 95//64
f 101//65 92//65 93//65
f 99//66 90//66 91//66
f 109//67 100//67 101//67
f 107//68 98//68 99//68
f 112//69 103//69 104//69
f 110//70 101//70 102//70
f 108//71 99//71 100//71
f 106//72 97//72 98//72
f 105//73 104//73 97//73
f 111//74 102//74 103//74
f 52//1 4//1 5//1
f 50//2 2//2 3//2
f 55//3 7//3 8//3
f 53//4 5//4 6//4
f 51//5 3//5 4//5
f 49//6 1//6 2//6
f 56//7 8//7 1//7
f 54//8 6//8 7//8
f 7//9 15//9 16//9
f 5//9 13//9 14//9
f 4//9 3//9 11//9
f 2//9 1//9 9//9
f 8//9 16//9 9//9
f 6//9 14//9 15//9
f 4//9 12//9 13//9
f 2//9 10//9 11//9
f 10//8 18//8 19//8
f 15//5 23//5 24//5
f 13//6 21//6 22//6
f 11//3 19//3 20//3
f 9//4 17//4 18//4
f 16//1 24//1 17//1
f 14//2 22//2 23//2
f 12//7 20//7 21//7
f 24//10 32//10 25//10
f 22//11 30//11 31//11
f 20//12 28//12 29//12
f 18//13 26//13 27//13
f 23//14 31//14 32//14
f 22//15 21//15 29//15
f 20//16 19//16 27//16
f 17//17 25//17 26//17
f 27//18 35//18 36//18
f 26//19 25//19 33//19
f 32//20 40//20 33//20
f 30//21 38//21 39//21
f 28//22 36//22 37//22
f 26//23 34//23 35//23
f 31//24 39//24 40//24
f 29//25 37//25 38//25
f 39//26 47//26 48//26
f 37//27 45//27 46//27
f 35//28 43//28 44//28
f 33//29 41//29 42//29
f 33//30 40//30 48//30
f 38//31 46//31 47//31
f 36//32 44//32 45//32
f 34//33 42//33 43//33
f 44//34 108//34 109//34
f 42//35 106//35 107//35
f 47//36 111//36 112//36
f 45//37 109//37 110//37
f 43//38 107//38 108//38
f 41//39 105//39 106//39
f 48//40 112//40 105//40
f 46//41 110//41 111//41
f 61//1 60//1 52//1
f 59//2 58//2 50//2
f 64//3 63//3 55//3
f 62//4 61//4 53//4
f 60//5 59//5 51//5
f 58//6 57//6 49//6
f 57//7 64//7 56//7
f 63//8 62//8 54//8
f 72//42 71//42 63//42
f 70//42 69//42 61//42
f 68//42 67//42 59//42
f 66//42 65//42 57//42
f 57//42 65//42 72//42
f 71//42 70//42 62//42
f 69//42 68//42 60//42
f 67//42 66//42 58//42
f 75//8 74//8 66//8
f 80//5 79//5 71//5
f 78//6 77//6 69//6
f 76//3 75//3 67//3
f 74//4 73//4 65//4
f 73//1 80//1 72//1
f 79//2 78//2 70//2
f 77//7 76//7 68//7
f 81//43 88//43 80//43
f 87//44 86//44 78//44
f 85//45 84//45 76//45
f 83//46 82//46 74//46
f 88//47 87//47 79//47
f 78//48 86//48 85//48
f 84//49 83//49 75//49
f 82//50 81//50 73//50
f 84//51 92//51 91//51
f 82//52 90//52 89//52
f 89//53 96//53 88//53
f 95//54 94//54 86//54
f 93//55 92//55 84//55
f 91//56 90//56 82//56
f 96//57 95//57 87//57
f 94//58 93//58 85//58
f 104//59 103//59 95//59
f 102//60 101//60 93//60
f 100//61 99//61 91//61
f 98//62 97//62 89//62
f 97//63 104//63 96//63
f 103//64 102//64 94//64
f 101//65 100//65 92//65
f 99//66 98//66 90//66
f 109//67 108//67 100//67
f 107//68 106//68 98//68
f 112//69 111//69 103//69
f 110//70 109//70 101//70
f 108//71 107//71 99//71
f 106//72 105//72 97//72
f 105//73 112//73 104//73
f 111//74 110//74 102//74
