# Blender v2.79 (sub 0) OBJ File: ''
# www.blender.org
mtllib repere.mtl
o Text_CUX
v 1.851429 -0.050000 -0.339781
v 1.733429 -0.050000 -0.339781
v 1.501429 -0.050000 -0.057781
v 1.266429 -0.050000 -0.339781
v 1.147429 -0.050000 -0.339781
v 1.441429 -0.050000 0.013219
v 1.168429 -0.050000 0.342219
v 1.287429 -0.050000 0.342219
v 1.501429 -0.050000 0.082219
v 1.714429 -0.050000 0.342219
v 1.832429 -0.050000 0.342219
v 1.560429 -0.050000 0.013219
v 1.851429 0.050000 -0.339781
v 1.733429 0.050000 -0.339781
v 1.501429 0.050000 -0.057781
v 1.266429 0.050000 -0.339781
v 1.147429 0.050000 -0.339781
v 1.441429 0.050000 0.013219
v 1.168429 0.050000 0.342219
v 1.287429 0.050000 0.342219
v 1.501429 0.050000 0.082219
v 1.714429 0.050000 0.342219
v 1.832429 0.050000 0.342219
v 1.560429 0.050000 0.013219
v 1.851429 0.050000 -0.339781
v 1.893836 0.030000 -0.359781
v 1.733429 0.050000 -0.339781
v 1.723984 0.030000 -0.359781
v 1.501429 0.050000 -0.057781
v 1.501330 0.030000 -0.089141
v 1.266429 0.050000 -0.339781
v 1.275796 0.030000 -0.359781
v 1.147429 0.050000 -0.339781
v 1.104743 0.030000 -0.359781
v 1.441429 0.050000 0.013219
v 1.415421 0.030000 0.013242
v 1.168429 0.050000 0.342219
v 1.125844 0.030000 0.362219
v 1.287429 0.050000 0.342219
v 1.296871 0.030000 0.362219
v 1.501429 0.050000 0.082219
v 1.501393 0.030000 0.113734
v 1.714429 0.050000 0.342219
v 1.704959 0.030000 0.362219
v 1.832429 0.050000 0.342219
v 1.874914 0.030000 0.362219
v 1.560429 0.050000 0.013219
v 1.586364 0.030000 0.013200
v 1.893836 0.030000 -0.359781
v 1.893836 -0.030000 -0.359781
v 1.723984 0.030000 -0.359781
v 1.723984 -0.030000 -0.359781
v 1.501330 0.030000 -0.089141
v 1.501330 -0.030000 -0.089141
v 1.275796 0.030000 -0.359781
v 1.275796 -0.030000 -0.359781
v 1.104743 0.030000 -0.359781
v 1.104743 -0.030000 -0.359781
v 1.415421 0.030000 0.013242
v 1.415421 -0.030000 0.013242
v 1.125844 0.030000 0.362219
v 1.125844 -0.030000 0.362219
v 1.296871 0.030000 0.362219
v 1.296871 -0.030000 0.362219
v 1.501393 0.030000 0.113734
v 1.501393 -0.030000 0.113734
v 1.704959 0.030000 0.362219
v 1.704959 -0.030000 0.362219
v 1.874914 0.030000 0.362219
v 1.874914 -0.030000 0.362219
v 1.586364 0.030000 0.013200
v 1.586364 -0.030000 0.013200
v 1.893836 -0.030000 -0.359781
v 1.851429 -0.050000 -0.339781
v 1.723984 -0.030000 -0.359781
v 1.733429 -0.050000 -0.339781
v 1.501330 -0.030000 -0.089141
v 1.501429 -0.050000 -0.057781
v 1.275796 -0.030000 -0.359781
v 1.266429 -0.050000 -0.339781
v 1.104743 -0.030000 -0.359781
v 1.147429 -0.050000 -0.339781
v 1.415421 -0.030000 0.013242
v 1.441429 -0.050000 0.013219
v 1.125844 -0.030000 0.362219
v 1.168429 -0.050000 0.342219
v 1.296871 -0.030000 0.362219
v 1.287429 -0.050000 0.342219
v 1.501393 -0.030000 0.113734
v 1.501429 -0.050000 0.082219
v 1.704959 -0.030000 0.362219
v 1.714429 -0.050000 0.342219
v 1.874914 -0.030000 0.362219
v 1.832429 -0.050000 0.342219
v 1.586364 -0.030000 0.013200
v 1.560429 -0.050000 0.013219
vt 0.552572 0.676579
vt 0.534004 0.716249
vt 0.519655 0.716249
vt 0.559807 0.684899
vt 0.599717 0.716248
vt 0.585489 0.716249
vt 0.566921 0.676579
vt 0.517123 0.634016
vt 0.559807 0.668019
vt 0.602007 0.634017
vt 0.531471 0.634016
vt 0.587780 0.634017
vt 0.413978 0.608352
vt 0.432546 0.648021
vt 0.399629 0.608352
vt 0.439781 0.639702
vt 0.479691 0.608352
vt 0.465463 0.608352
vt 0.446895 0.648021
vt 0.397097 0.690584
vt 0.439781 0.656582
vt 0.481981 0.690584
vt 0.411445 0.690584
vt 0.467753 0.690584
vt 0.594160 0.543565
vt 0.607857 0.538924
vt 0.613865 0.541283
vt 0.565325 0.511914
vt 0.595466 0.540031
vt 0.535518 0.540063
vt 0.565320 0.506566
vt 0.536838 0.543549
vt 0.523098 0.539086
vt 0.552790 0.496928
vt 0.517123 0.541494
vt 0.525855 0.457683
vt 0.557288 0.496947
vt 0.539543 0.453308
vt 0.519947 0.455259
vt 0.565402 0.482259
vt 0.538211 0.456770
vt 0.592537 0.456778
vt 0.565406 0.487621
vt 0.591204 0.453308
vt 0.604810 0.457698
vt 0.577867 0.497013
vt 0.610722 0.455275
vt 0.573342 0.497053
vt 0.471678 0.608254
vt 0.493534 0.600185
vt 0.501010 0.607030
vt 0.460155 0.567780
vt 0.475688 0.597972
vt 0.412867 0.573522
vt 0.465761 0.558501
vt 0.397097 0.558515
vt 0.415086 0.567086
vt 0.448757 0.522738
vt 0.407510 0.558907
vt 0.442355 0.464560
vt 0.459335 0.528804
vt 0.450022 0.453308
vt 0.447101 0.465405
vt 0.472976 0.453308
vt 0.452706 0.457343
vt 0.492231 0.476463
vt 0.470550 0.457913
vt 0.517025 0.489221
vt 0.487236 0.482495
vt 0.495447 0.542191
vt 0.508887 0.492925
vt 0.485340 0.540075
vt 0.607856 0.548307
vt 0.594160 0.543663
vt 0.613865 0.545950
vt 0.595466 0.547197
vt 0.565316 0.575306
vt 0.535517 0.547148
vt 0.565310 0.580654
vt 0.523097 0.548122
vt 0.536838 0.543663
vt 0.552777 0.590288
vt 0.517123 0.545712
vt 0.525831 0.629526
vt 0.557275 0.590270
vt 0.539518 0.633904
vt 0.519923 0.631948
vt 0.538188 0.630442
vt 0.565385 0.604961
vt 0.592513 0.630449
vt 0.565390 0.599599
vt 0.604786 0.629533
vt 0.591179 0.633918
vt 0.577855 0.590210
vt 0.610698 0.631957
vt 0.573329 0.590169
vn -0.0000 -1.0000 0.0000
vn 0.0000 1.0000 0.0000
vn 0.0000 0.7071 -0.7071
vn -0.5461 0.7071 -0.4492
vn 0.5432 0.7071 -0.4527
vn -0.5433 0.7071 0.4525
vn -0.5442 0.7071 -0.4515
vn 0.0000 0.7071 0.7071
vn 0.5460 0.7071 0.4494
vn -0.5470 0.7071 0.4481
vn 0.5450 0.7071 -0.4506
vn 0.5456 0.7071 0.4498
vn 0.0000 0.0000 -1.0000
vn -0.7722 0.0000 -0.6353
vn 0.7682 0.0000 -0.6402
vn -0.7684 0.0000 0.6400
vn -0.7696 -0.0000 -0.6386
vn 0.0000 0.0000 1.0000
vn 0.7721 0.0000 0.6355
vn -0.7736 0.0000 0.6337
vn 0.7707 0.0000 -0.6372
vn 0.7716 -0.0000 0.6361
vn -0.0000 -0.7071 -0.7071
vn -0.5461 -0.7071 -0.4492
vn 0.5432 -0.7071 -0.4527
vn -0.5433 -0.7071 0.4525
vn -0.5442 -0.7071 -0.4515
vn -0.0000 -0.7071 0.7071
vn 0.5460 -0.7071 0.4494
vn -0.5470 -0.7071 0.4481
vn 0.5450 -0.7071 -0.4506
vn 0.5456 -0.7071 0.4498
usemtl None
s off
f 6/1/1 8/2/1 7/3/1
f 6/1/1 9/4/1 8/2/1
f 9/4/1 11/5/1 10/6/1
f 9/4/1 12/7/1 11/5/1
f 6/1/1 12/7/1 9/4/1
f 5/8/1 12/7/1 6/1/1
f 5/8/1 3/9/1 12/7/1
f 3/9/1 1/10/1 12/7/1
f 5/8/1 4/11/1 3/9/1
f 2/12/1 1/10/1 3/9/1
f 20/13/2 18/14/2 19/15/2
f 21/16/2 18/14/2 20/13/2
f 23/17/2 21/16/2 22/18/2
f 24/19/2 21/16/2 23/17/2
f 24/19/2 18/14/2 21/16/2
f 24/19/2 17/20/2 18/14/2
f 15/21/2 17/20/2 24/19/2
f 13/22/2 15/21/2 24/19/2
f 16/23/2 17/20/2 15/21/2
f 13/22/2 14/24/2 15/21/2
f 28/25/3 25/26/3 26/27/3
f 30/28/4 27/29/4 28/25/4
f 30/28/5 31/30/5 29/31/5
f 32/32/3 33/33/3 31/30/3
f 36/34/6 33/33/6 34/35/6
f 36/34/7 37/36/7 35/37/7
f 40/38/8 37/36/8 38/39/8
f 42/40/9 39/41/9 40/38/9
f 42/40/10 43/42/10 41/43/10
f 44/44/8 45/45/8 43/42/8
f 48/46/11 45/45/11 46/47/11
f 48/46/12 25/26/12 47/48/12
f 52/49/13 49/50/13 50/51/13
f 54/52/14 51/53/14 52/49/14
f 56/54/15 53/55/15 54/52/15
f 58/56/13 55/57/13 56/54/13
f 60/58/16 57/59/16 58/56/16
f 62/60/17 59/61/17 60/58/17
f 64/62/18 61/63/18 62/60/18
f 66/64/19 63/65/19 64/62/19
f 68/66/20 65/67/20 66/64/20
f 70/68/18 67/69/18 68/66/18
f 72/70/21 69/71/21 70/68/21
f 50/51/22 71/72/22 72/70/22
f 74/73/23 75/74/23 73/75/23
f 76/76/24 77/77/24 75/74/24
f 80/78/25 77/77/25 78/79/25
f 82/80/23 79/81/23 80/78/23
f 82/80/26 83/82/26 81/83/26
f 86/84/27 83/82/27 84/85/27
f 86/84/28 87/86/28 85/87/28
f 88/88/29 89/89/29 87/86/29
f 92/90/30 89/89/30 90/91/30
f 94/92/28 91/93/28 92/90/28
f 94/92/31 95/94/31 93/95/31
f 74/73/32 95/94/32 96/96/32
f 28/25/3 27/29/3 25/26/3
f 30/28/4 29/31/4 27/29/4
f 30/28/5 32/32/5 31/30/5
f 32/32/3 34/35/3 33/33/3
f 36/34/6 35/37/6 33/33/6
f 36/34/7 38/39/7 37/36/7
f 40/38/8 39/41/8 37/36/8
f 42/40/9 41/43/9 39/41/9
f 42/40/10 44/44/10 43/42/10
f 44/44/8 46/47/8 45/45/8
f 48/46/11 47/48/11 45/45/11
f 48/46/12 26/27/12 25/26/12
f 52/49/13 51/53/13 49/50/13
f 54/52/14 53/55/14 51/53/14
f 56/54/15 55/57/15 53/55/15
f 58/56/13 57/59/13 55/57/13
f 60/58/16 59/61/16 57/59/16
f 62/60/17 61/63/17 59/61/17
f 64/62/18 63/65/18 61/63/18
f 66/64/19 65/67/19 63/65/19
f 68/66/20 67/69/20 65/67/20
f 70/68/18 69/71/18 67/69/18
f 72/70/21 71/72/21 69/71/21
f 50/51/22 49/50/22 71/72/22
f 74/73/23 76/76/23 75/74/23
f 76/76/24 78/79/24 77/77/24
f 80/78/25 79/81/25 77/77/25
f 82/80/23 81/83/23 79/81/23
f 82/80/26 84/85/26 83/82/26
f 86/84/27 85/87/27 83/82/27
f 86/84/28 88/88/28 87/86/28
f 88/88/29 90/91/29 89/89/29
f 92/90/30 91/93/30 89/89/30
f 94/92/28 93/95/28 91/93/28
f 94/92/31 96/96/31 95/94/31
f 74/73/32 73/75/32 95/94/32
o Cube
v 0.100000 -0.100000 -0.100000
v -0.100000 -0.100000 -0.100000
v -0.100000 0.100000 -0.100000
v 0.100000 0.100000 -0.100000
v 0.100000 -0.100000 0.100000
v -0.100000 -0.100000 0.100000
v -0.100000 0.100000 0.100000
v 0.100000 0.100000 0.100000
v 0.100000 -1.100000 -0.100000
v -0.100000 -1.100000 -0.100000
v 0.100000 -1.100000 0.100000
v -0.100000 -1.100000 0.100000
v 1.100000 -0.100000 -0.100000
v 1.100000 0.100000 -0.100000
v 1.100000 -0.100000 0.100000
v 1.100000 0.100000 0.100000
v 0.100000 -0.100000 1.100000
v -0.100000 -0.100000 1.100000
v 0.100000 0.100000 1.100000
v -0.100000 0.100000 1.100000
v -0.000000 0.000000 1.200000
v 1.200000 -0.000000 0.000000
v -0.000000 -1.200000 0.000000
vt 0.000000 0.000000
vt 1.000000 1.000000
vt 0.000000 1.000000
vt 0.873445 0.566283
vt 0.782504 0.657224
vt 0.782504 0.566283
vt 0.276107 0.472584
vt 0.179715 0.588645
vt 0.179264 0.588093
vt 1.000000 0.000000
vt 0.000000 1.000000
vt 0.000000 0.000000
vt 0.000000 0.000000
vt 1.000000 1.000000
vt 0.393880 0.393880
vt 0.606120 0.606120
vt 0.393880 0.606120
vt 0.178811 0.588638
vt 0.179255 0.588648
vt 0.082444 0.472603
vt 0.179257 0.589184
vt 0.082444 0.704663
vt 0.276076 0.704681
vt 0.393880 0.393880
vt 0.606120 0.393880
vt 0.606120 0.606120
vt 0.606120 0.393880
vt 0.393880 0.606120
vt 0.393880 0.393880
vt 0.606120 0.393880
vt 0.393880 0.606120
vt 0.393880 0.393880
vt 0.606120 0.393880
vt 0.393880 0.606120
vt 0.393880 0.393880
vt 0.782504 0.566283
vt 0.873445 0.566283
vt 0.873445 0.657224
vt 0.873445 0.566283
vt 0.782504 0.657224
vt 0.782504 0.566283
vt 0.873445 0.566283
vt 0.782504 0.657224
vt 0.782504 0.566283
vt 0.873445 0.566283
vt 0.782504 0.657224
vt 0.782504 0.566283
vt 0.782504 0.566283
vt 0.873445 0.566283
vt 0.782504 0.566283
vt 0.873445 0.566283
vt 0.782504 0.566283
vt 0.873445 0.566283
vt 0.393880 0.393880
vt 0.606120 0.393880
vt 0.393880 0.393880
vt 0.606120 0.393880
vt 0.393880 0.393880
vt 0.606120 0.393880
vt 1.000000 0.000000
vt 0.873445 0.657224
vt 1.000000 1.000000
vt 1.000000 0.000000
vt 0.606120 0.393880
vt 0.606120 0.606120
vt 0.606120 0.606120
vt 0.606120 0.606120
vt 0.873445 0.657224
vt 0.873445 0.657224
vt 0.873445 0.657224
vn -0.0000 0.0000 -1.0000
vn 0.0000 1.0000 0.0000
vn -1.0000 0.0000 -0.0000
vn -0.0000 -1.0000 -0.0000
vn 0.0000 -0.7071 0.7071
vn 1.0000 -0.0000 0.0000
vn 0.0000 0.0000 1.0000
vn 0.7071 0.7071 -0.0000
vn 0.0000 0.7071 0.7071
vn 0.7071 -0.0000 0.7071
vn -0.7071 0.0000 0.7071
vn 0.7071 0.0000 -0.7071
vn 0.7071 -0.7071 -0.0000
vn -0.7071 -0.7071 0.0000
vn 0.0000 -0.7071 -0.7071
usemtl Material
s off
f 97/97/33 99/98/33 100/99/33
f 103/100/34 115/101/34 104/102/34
f 102/103/35 106/104/35 108/105/35
f 102/106/35 99/107/35 98/108/35
f 99/109/34 104/110/34 100/99/34
f 101/111/36 109/112/36 111/113/36
f 107/114/37 108/105/37 119/115/37
f 101/116/38 105/117/38 97/118/38
f 98/119/33 105/117/33 106/104/33
f 102/103/39 107/114/39 101/116/39
f 110/120/40 112/121/40 118/122/40
f 101/123/39 112/124/39 104/125/39
f 104/126/34 110/127/34 100/128/34
f 100/129/33 109/130/33 97/131/33
f 115/132/41 116/133/41 117/134/41
f 104/135/38 113/136/38 101/137/38
f 102/138/35 116/139/35 103/140/35
f 101/141/36 114/142/36 102/143/36
f 113/144/42 115/145/42 117/134/42
f 116/146/43 114/147/43 117/134/43
f 114/148/37 113/149/37 117/134/37
f 109/150/44 110/151/44 118/122/44
f 112/152/42 111/153/42 118/122/42
f 111/154/45 109/155/45 118/122/45
f 105/117/45 107/114/45 119/115/45
f 108/105/46 106/104/46 119/115/46
f 106/104/47 105/117/47 119/115/47
f 97/97/33 98/156/33 99/98/33
f 103/100/34 116/157/34 115/101/34
f 102/103/35 98/119/35 106/104/35
f 102/106/35 103/158/35 99/107/35
f 99/109/34 103/159/34 104/110/34
f 101/111/36 97/160/36 109/112/36
f 101/116/38 107/114/38 105/117/38
f 98/119/33 97/118/33 105/117/33
f 102/103/39 108/105/39 107/114/39
f 101/123/39 111/161/39 112/124/39
f 104/126/34 112/162/34 110/127/34
f 100/129/33 110/163/33 109/130/33
f 104/135/38 115/164/38 113/136/38
f 102/138/35 114/165/35 116/139/35
f 101/141/36 113/166/36 114/142/36
