# Blender v2.79 (sub 0) OBJ File: ''
# www.blender.org
mtllib SuzaneLOD4.mtl
o Suzanne
v 0.454092 -0.013123 0.604318
v 0.077860 0.158872 0.660316
v 0.197409 0.457280 0.646048
v -0.197409 0.457280 0.646048
v -0.340102 0.346520 0.822498
v 0.471627 0.479476 0.591868
v -0.453333 0.188099 0.779157
v 0.340102 0.346520 0.822498
v 0.291229 0.174944 0.833193
v 0.453333 0.188099 0.779157
v -0.291229 0.174944 0.833193
v 0.240012 0.742508 0.760963
v -0.240012 0.742508 0.760963
v -0.340914 0.546853 0.775509
v 0.340914 0.546853 0.775509
v 0.122227 -0.179591 0.750408
v -0.204831 0.306576 0.763833
v 0.276456 -0.887640 0.639694
v -0.274321 -0.797670 0.658916
v -0.076649 -0.317732 0.768069
v 0.067440 -0.184108 0.823023
v 0.237491 -0.207065 0.530562
v 0.110959 -0.792082 0.693991
v -0.231922 0.136114 0.761079
v 0.321958 0.404373 0.770222
v -0.321958 0.404373 0.770222
v 0.559852 0.259955 0.684632
v 0.002353 0.426772 0.655591
v -0.810819 0.396354 0.623893
v 0.810819 0.396354 0.623893
v 0.327173 -0.910245 0.442781
v -0.328346 -0.942295 0.456263
v 0.128063 -0.457143 0.288841
v 0.141560 -0.339230 -0.383905
v -0.159452 -0.441949 0.312921
v 0.343889 0.954387 0.090121
v -0.655815 0.763019 -0.325042
v 0.731783 0.631006 -0.351180
v -0.419852 0.881357 0.113675
v 0.354396 0.565340 0.527683
v -0.362543 0.559797 0.520230
v 0.709049 0.046838 0.538841
v 0.776478 0.395054 0.296339
v -0.494114 -0.148940 -0.247945
v -0.237491 -0.207065 0.530562
v 0.573910 -0.008560 -0.458374
v -0.355970 0.401157 -0.732307
v -0.133441 -0.101383 -0.705161
v 1.229120 0.426319 -0.390544
v -1.221717 0.237032 -0.447490
v -1.151520 0.044970 -0.427382
v -1.229120 0.426319 -0.390544
v 0.712776 -0.054203 -0.133835
v -0.712776 -0.054203 -0.133835
v -0.846160 0.339725 -0.190268
v 0.786006 0.101392 -0.298589
v -1.085490 0.357352 -0.413084
v 1.221717 0.237032 -0.447490
v -0.860065 0.008021 -0.307075
v 0.860065 0.008021 -0.307075
v 1.324911 0.115101 -0.538958
v -1.324911 0.115101 -0.538958
v 1.172377 0.466443 -0.484168
v -1.172377 0.466443 -0.484168
v 0.882105 -0.133648 -0.255479
v -0.882105 -0.133648 -0.255479
v -0.615699 0.242890 0.568533
v 0.615699 0.242890 0.568533
v -0.454092 -0.013123 0.604318
v -0.077860 0.158872 0.660316
v -0.471627 0.479476 0.591868
v -0.115375 -0.773732 0.704136
v -0.559852 0.259955 0.684632
v -0.408642 0.099525 0.724841
v 0.818524 0.314533 -0.369843
v -0.786006 0.101392 -0.298589
v -0.000453 0.392585 0.808607
v -0.100390 -0.129515 0.778612
v 0.013983 -0.908799 0.689277
v 0.408642 0.099525 0.724841
v 0.232189 0.136295 0.761429
v 0.199690 0.299029 0.761630
v -0.776478 0.395054 0.296339
v -0.709049 0.046838 0.538841
v -0.818524 0.314533 -0.369843
v -0.020233 0.783372 -0.610882
v 0.413665 0.413415 -0.695008
v 0.846160 0.339725 -0.190268
v 1.151520 0.044970 -0.427382
v 1.085490 0.357352 -0.413084
vt 0.909990 0.210307
vt 0.860921 0.203268
vt 0.948472 0.156261
vt 0.919188 0.235007
vt 0.885140 0.277603
vt 0.963744 0.274711
vt 0.936875 0.207529
vt 0.911002 0.063926
vt 0.896765 0.134867
vt 0.856635 0.085271
vt 0.397323 0.563525
vt 0.394595 0.561952
vt 0.398988 0.562426
vt 0.422756 0.596712
vt 0.371784 0.541358
vt 0.393995 0.557848
vt 0.391724 0.559087
vt 0.368031 0.570737
vt 0.354116 0.570894
vt 0.365900 0.507472
vt 0.367755 0.314296
vt 0.374100 0.223753
vt 0.562482 0.404804
vt 0.340430 0.464308
vt 0.335545 0.477306
vt 0.284872 0.427451
vt 0.809717 0.423686
vt 0.549721 0.549063
vt 0.349478 0.499441
vt 0.362111 0.490533
vt 0.345421 0.516239
vt 0.368547 0.598291
vt 0.549203 0.802410
vt 0.184719 0.774949
vt 0.322758 0.518996
vt 0.025655 0.403808
vt 0.313882 0.495808
vt 0.394047 0.563792
vt 0.392400 0.562013
vt 0.362295 0.589692
vt 0.329639 0.487766
vt 0.348900 0.413209
vt 0.359196 0.466601
vt 0.425605 0.365283
vt 0.495817 0.445009
vt 0.375343 0.487429
vt 0.412365 0.554940
vt 0.396638 0.542710
vt 0.437732 0.502088
vt 0.417043 0.499684
vt 0.429489 0.487133
vt 0.410992 0.490330
vt 0.441148 0.475287
vt 0.448303 0.488594
vt 0.416720 0.478585
vt 0.423959 0.450238
vt 0.392199 0.468420
vt 0.456303 0.485558
vt 0.399492 0.482701
vt 0.393307 0.493774
vt 0.397639 0.494336
vt 0.423283 0.514933
vt 0.402059 0.507327
vt 0.393280 0.502420
vt 0.458525 0.503409
vt 0.452158 0.491398
vt 0.451742 0.491160
vt 0.396098 0.496030
vt 0.395906 0.496188
vt 0.451729 0.492330
vt 0.452429 0.491872
vt 0.396202 0.496631
vt 0.395808 0.496453
vt 0.395764 0.497020
vt 0.452675 0.492951
vt 0.451228 0.497621
vt 0.396785 0.499349
vt 0.395472 0.496219
vt 0.457415 0.493886
vt 0.455599 0.495208
vt 0.393501 0.497784
vt 0.453004 0.491314
vt 0.394445 0.498324
vt 0.994212 0.218658
vt 0.890298 0.015612
vt 0.937945 0.061781
vt 0.984923 0.045959
vt 0.974590 0.123454
vt 0.933380 0.087740
vt 0.265300 0.076924
vn -0.3112 -0.8309 0.4613
vn -0.6236 0.2243 0.7488
vn 0.0319 0.8579 0.5128
vn 0.7156 0.3454 0.6072
vn -0.6916 0.3593 0.6266
vn 0.3184 -0.0316 0.9474
vn 0.1059 -0.9844 0.1403
vn 0.9667 0.0935 0.2382
vn -0.9769 0.1017 0.1878
vn -0.7734 0.1803 0.6078
vn -0.4117 -0.7800 0.4714
vn 0.3704 0.2574 0.8925
vn -0.0512 0.1003 0.9936
vn 0.3846 -0.3225 0.8649
vn -0.3846 -0.3225 0.8649
vn -0.4333 -0.3928 0.8111
vn 0.1825 -0.0977 0.9783
vn -0.1945 -0.0316 0.9804
vn -0.0613 -0.0135 0.9980
vn 0.0051 -0.0170 0.9998
vn 0.1975 -0.2029 0.9591
vn -0.2168 -0.3095 0.9259
vn -0.2561 -0.1128 0.9600
vn -0.2818 -0.0891 0.9553
vn 0.7944 -0.1424 0.5905
vn -0.8485 -0.1357 0.5114
vn 0.2798 -0.0892 0.9559
vn -0.2798 -0.0892 0.9559
vn -0.2970 -0.0748 0.9519
vn 0.0265 -0.0336 0.9991
vn 0.4606 0.5783 -0.6734
vn 0.3917 0.8150 -0.4269
vn -0.3950 0.8174 -0.4193
vn 0.3545 0.9342 -0.0409
vn 0.9616 -0.2557 -0.0998
vn -0.9616 -0.2557 -0.0998
vn 0.0501 -0.9963 0.0696
vn 0.8178 0.1728 -0.5490
vn -0.8648 0.1551 -0.4775
vn 0.3492 -0.3540 -0.8676
vn 0.0489 -0.0323 -0.9983
vn 0.6430 0.2195 -0.7338
vn 0.3062 0.8760 -0.3727
vn -0.0553 0.7793 0.6242
vn 0.9107 0.4043 0.0844
vn -0.8994 0.4299 0.0799
vn 0.9453 0.2699 -0.1833
vn -0.9166 0.3516 -0.1904
vn 0.9305 -0.3636 -0.0451
vn 0.6122 -0.7892 0.0498
vn -0.8342 -0.4975 0.2378
vn -0.3732 -0.9262 0.0539
vn 0.4680 -0.8735 0.1338
vn 0.5772 -0.2216 -0.7860
vn -0.5565 -0.2885 -0.7791
vn -0.0014 0.9188 0.3946
vn 0.0014 0.9188 0.3946
vn 0.4351 -0.2750 0.8574
vn -0.4351 -0.2750 0.8574
vn -0.5720 -0.1242 0.8108
vn 0.5461 -0.0176 0.8376
vn -0.5642 -0.0584 0.8236
vn -0.3673 -0.8713 0.3256
vn -0.9481 -0.3135 0.0523
vn 0.6098 0.4228 0.6703
vn -0.9441 -0.3002 0.1362
vn 0.6267 -0.4480 0.6377
vn -0.0122 -0.2876 0.9577
vn 0.0122 -0.2876 0.9577
vn 0.0309 0.9321 0.3610
vn -0.0309 0.9321 0.3610
vn 0.3136 0.0846 0.9458
vn -0.3136 0.0846 0.9458
vn 0.2624 0.1212 0.9573
vn -0.2624 0.1212 0.9573
vn -0.8450 0.4187 -0.3327
vn -0.4111 0.9093 -0.0643
vn -0.3123 0.0126 -0.9499
vn -0.4014 -0.2795 -0.8722
vn 0.3123 0.0126 -0.9499
vn -0.3994 -0.9158 0.0421
vn 0.7689 -0.4177 0.4841
vn -0.7689 -0.4177 0.4841
vn 0.2917 -0.6267 0.7226
vn -0.2917 -0.6267 0.7226
vn 0.3112 -0.8309 0.4613
vn -0.6455 0.2924 0.7056
vn 0.6455 0.2924 0.7056
vn 0.6236 0.2243 0.7488
vn -0.0319 0.8579 0.5128
vn 0.6916 0.3593 0.6266
vn -0.7156 0.3454 0.6072
vn -0.3184 -0.0316 0.9474
vn -0.3411 -0.7198 0.6046
vn 0.8852 0.1226 0.4488
vn 0.4420 -0.8318 0.3357
vn -0.3704 0.2574 0.8925
vn 0.0511 0.1002 0.9937
vn 0.1607 -0.1463 0.9761
vn -0.1569 -0.1364 0.9782
vn 0.4800 -0.2410 0.8435
vn -0.4800 -0.2410 0.8435
vn 0.4392 -0.3760 0.8159
vn -0.0220 0.0550 0.9982
vn -0.0036 -0.4549 0.8905
vn 0.2613 -0.0933 0.9607
vn 0.1523 -0.0934 0.9839
vn 0.0329 -0.1415 0.9894
vn 0.5519 -0.7473 0.3700
vn -0.1977 0.1766 0.9642
vn 0.0388 -0.0725 0.9966
vn 0.2970 -0.0748 0.9519
vn -0.0432 -0.0313 0.9986
vn -0.8116 0.5731 0.1132
vn -0.4698 0.5767 -0.6683
vn 0.8076 0.5723 0.1427
vn -0.3505 0.9357 -0.0405
vn -0.0037 -0.3231 -0.9463
vn -0.0938 -0.2448 -0.9650
vn 0.3327 -0.5990 -0.7283
vn -0.3371 -0.8713 -0.3566
vn -0.0665 -0.9826 -0.1736
vn -0.3293 -0.9032 -0.2754
vn -0.1123 0.9772 -0.1801
vn -0.0995 0.9729 -0.2089
vn 0.3675 0.5938 -0.7158
vn 0.0424 0.2685 -0.9623
vn -0.3565 0.5525 -0.7534
vn -0.6227 0.2982 -0.7234
vn 0.7439 0.6428 0.1829
vn -0.7419 0.6301 0.2291
vn 0.5531 0.6291 0.5461
vn -0.5502 0.6155 0.5643
vn -0.0522 0.7457 0.6643
vn 0.0110 0.7278 0.6857
vn 0.9848 -0.0857 0.1508
vn -0.9848 -0.0857 0.1508
vn 0.0768 -0.9823 -0.1710
vn -0.4680 -0.8735 0.1338
vn 0.5720 -0.1242 0.8108
vn -0.5461 -0.0176 0.8376
vn 0.5642 -0.0584 0.8236
vn 0.3673 -0.8713 0.3256
vn 0.9481 -0.3135 0.0523
vn -0.6098 0.4228 0.6703
vn 0.9441 -0.3002 0.1362
vn -0.6267 -0.4480 0.6377
vn 0.3860 -0.0446 0.9214
vn -0.3860 -0.0446 0.9214
vn 0.8450 0.4187 -0.3327
vn 0.4111 0.9093 -0.0643
vn 0.4014 -0.2795 -0.8722
vn 0.5018 -0.1463 -0.8525
vn -0.5048 -0.1455 -0.8509
vn -0.0365 -0.9906 -0.1318
vn -0.0433 -0.8078 0.5878
usemtl None
s off
f 9/1/1 2/2/1 1/3/1
f 2/2/2 9/1/2 8/4/2
f 3/5/3 8/4/3 6/6/3
f 10/7/4 6/6/4 8/4/4
f 7/8/5 71/9/5 67/10/5
f 9/1/6 10/7/6 8/4/6
f 18/11/7 79/12/7 31/13/7
f 31/13/8 22/14/8 18/11/8
f 45/15/9 32/16/9 19/17/9
f 45/15/10 19/17/10 20/18/10
f 45/15/11 78/19/11 84/20/11
f 12/21/12 15/22/12 30/23/12
f 13/24/13 14/25/13 77/26/13
f 27/27/14 42/28/14 30/23/14
f 84/20/15 73/29/15 29/30/15
f 84/20/16 78/19/16 74/31/16
f 16/32/17 80/33/17 81/34/17
f 74/31/18 78/19/18 24/35/18
f 81/34/19 82/36/19 16/32/19
f 24/35/20 82/36/20 17/37/20
f 18/11/21 23/38/21 79/12/21
f 72/39/22 19/17/22 79/12/22
f 19/17/23 72/39/23 20/18/23
f 20/18/24 21/40/24 78/19/24
f 82/36/25 21/40/25 16/32/25
f 45/15/26 20/18/26 78/19/26
f 27/27/27 30/23/27 15/22/27
f 29/30/28 73/29/28 14/25/28
f 14/25/29 73/29/29 26/41/29
f 26/41/30 17/37/30 14/25/30
f 13/24/31 28/42/31 41/43/31
f 30/23/32 40/44/32 12/21/32
f 41/43/33 29/30/33 13/24/33
f 30/23/34 43/45/34 40/44/34
f 42/28/35 43/45/35 30/23/35
f 83/46/36 84/20/36 29/30/36
f 32/16/37 31/13/37 79/12/37
f 33/47/38 22/14/38 31/13/38
f 45/15/39 35/48/39 32/16/39
f 46/49/40 48/50/40 87/51/40
f 87/51/41 48/50/41 47/52/41
f 38/53/42 75/54/42 87/51/42
f 38/53/43 86/55/43 36/56/43
f 41/43/44 36/56/44 39/57/44
f 88/58/45 38/53/45 43/45/45
f 37/59/46 55/60/46 83/46/46
f 88/58/47 75/54/47 38/53/47
f 85/61/48 55/60/48 37/59/48
f 33/47/49 34/62/49 22/14/49
f 46/49/50 22/14/50 34/62/50
f 44/63/51 35/48/51 45/15/51
f 45/15/52 54/64/52 44/63/52
f 42/28/53 22/14/53 53/65/53
f 87/51/54 75/54/54 46/49/54
f 85/61/55 47/52/55 48/50/55
f 49/66/56 63/67/56 88/58/56
f 64/68/57 52/69/57 55/60/57
f 61/70/58 49/66/58 58/71/58
f 52/69/59 62/72/59 50/73/59
f 50/73/60 62/72/60 51/74/60
f 89/75/61 65/76/61 61/70/61
f 54/64/62 51/74/62 66/77/62
f 52/69/63 57/78/63 55/60/63
f 54/64/64 84/20/64 55/60/64
f 56/79/65 53/65/65 60/80/65
f 76/81/66 54/64/66 55/60/66
f 90/82/67 88/58/67 56/79/67
f 49/66/68 90/82/68 58/71/68
f 57/78/69 52/69/69 50/73/69
f 60/80/70 53/65/70 89/75/70
f 54/64/71 59/83/71 51/74/71
f 58/71/72 90/82/72 60/80/72
f 57/78/73 50/73/73 59/83/73
f 60/80/74 90/82/74 56/79/74
f 57/78/75 59/83/75 76/81/75
f 52/69/76 64/68/76 62/72/76
f 75/54/77 88/58/77 63/67/77
f 63/67/78 61/70/78 75/54/78
f 75/54/79 61/70/79 65/76/79
f 62/72/80 64/68/80 85/61/80
f 65/76/81 53/65/81 46/49/81
f 68/84/82 10/7/82 1/3/82
f 69/85/83 7/8/83 67/10/83
f 10/7/84 9/1/84 1/3/84
f 69/85/85 11/86/85 7/8/85
f 11/86/86 69/85/86 70/87/86
f 8/4/87 3/5/87 2/2/87
f 70/87/88 4/88/88 5/89/88
f 70/87/89 5/89/89 11/86/89
f 4/88/90 71/9/90 5/89/90
f 10/7/91 68/84/91 6/6/91
f 7/8/92 5/89/92 71/9/92
f 11/86/93 5/89/93 7/8/93
f 32/16/94 79/12/94 19/17/94
f 22/14/95 16/32/95 18/11/95
f 22/14/96 42/28/96 16/32/96
f 13/24/97 29/30/97 14/25/97
f 12/21/98 77/26/98 15/22/98
f 77/26/99 82/36/99 15/22/99
f 14/25/100 17/37/100 77/26/100
f 27/27/101 80/33/101 42/28/101
f 84/20/102 74/31/102 73/29/102
f 42/28/103 80/33/103 16/32/103
f 24/35/104 78/19/104 82/36/104
f 77/26/105 17/37/105 82/36/105
f 18/11/106 16/32/106 23/38/106
f 16/32/107 20/18/107 23/38/107
f 20/18/108 72/39/108 23/38/108
f 16/32/109 21/40/109 20/18/109
f 82/36/110 78/19/110 21/40/110
f 23/38/111 72/39/111 79/12/111
f 15/22/112 25/90/112 27/27/112
f 25/90/113 15/22/113 82/36/113
f 28/42/114 77/26/114 12/21/114
f 12/21/115 40/44/115 28/42/115
f 13/24/116 77/26/116 28/42/116
f 29/30/117 41/43/117 83/46/117
f 31/13/118 32/16/118 33/47/118
f 35/48/119 33/47/119 32/16/119
f 48/50/120 46/49/120 34/62/120
f 34/62/121 44/63/121 48/50/121
f 33/47/122 35/48/122 34/62/122
f 44/63/123 34/62/123 35/48/123
f 36/56/124 86/55/124 37/59/124
f 37/59/125 39/57/125 36/56/125
f 87/51/126 86/55/126 38/53/126
f 87/51/127 47/52/127 86/55/127
f 86/55/128 47/52/128 37/59/128
f 37/59/129 47/52/129 85/61/129
f 43/45/130 38/53/130 36/56/130
f 39/57/131 37/59/131 83/46/131
f 40/44/132 43/45/132 36/56/132
f 39/57/133 83/46/133 41/43/133
f 36/56/134 28/42/134 40/44/134
f 41/43/135 28/42/135 36/56/135
f 42/28/136 88/58/136 43/45/136
f 83/46/137 55/60/137 84/20/137
f 22/14/138 46/49/138 53/65/138
f 84/20/139 54/64/139 45/15/139
f 58/71/140 89/75/140 61/70/140
f 51/74/141 62/72/141 66/77/141
f 53/65/142 65/76/142 89/75/142
f 49/66/143 88/58/143 90/82/143
f 53/65/144 88/58/144 42/28/144
f 76/81/145 59/83/145 54/64/145
f 56/79/146 88/58/146 53/65/146
f 57/78/147 76/81/147 55/60/147
f 58/71/148 60/80/148 89/75/148
f 51/74/149 59/83/149 50/73/149
f 49/66/150 61/70/150 63/67/150
f 85/61/151 64/68/151 55/60/151
f 85/61/152 66/77/152 62/72/152
f 65/76/153 46/49/153 75/54/153
f 85/61/154 48/50/154 66/77/154
f 66/77/155 48/50/155 44/63/155
f 66/77/156 44/63/156 54/64/156
