# Blender v2.79 (sub 0) OBJ File: ''
# www.blender.org
mtllib switchDown.mtl
o Cube
v -0.973000 1.000000 0.973000
v -1.000000 0.973000 0.973000
v -0.973000 0.973000 1.000000
v -0.973000 1.000000 -0.973000
v -0.973000 0.973000 -1.000000
v -1.000000 0.973000 -0.973000
v -0.973000 -0.973000 -1.000000
v -0.973000 -1.000000 -0.973000
v -1.000000 -0.973000 -0.973000
v -0.973000 -0.973000 1.000000
v -1.000000 -0.973000 0.973000
v -0.973000 -1.000000 0.973000
v -0.772772 0.973000 1.000000
v -0.745772 0.934817 0.972999
v -0.745772 0.973000 0.934816
v -0.772772 1.000000 0.973000
v -0.772772 0.972999 -1.000000
v -0.772772 0.999999 -0.973001
v -0.745772 0.972999 -0.934817
v -0.745772 0.934816 -0.973001
v -0.772772 -1.000000 -0.973000
v -0.772772 -0.973000 -1.000000
v -0.745772 -0.934817 -0.973000
v -0.745772 -0.973000 -0.934816
v -0.772772 -1.000000 0.973000
v -0.745772 -0.973000 0.934816
v -0.745772 -0.934816 0.973000
v -0.772772 -0.973000 1.000000
v -0.718772 0.879097 0.852096
v -0.745772 0.906097 0.867912
v -0.745772 0.867913 0.906096
v -0.718772 0.852097 0.879096
v -0.718772 0.879096 -0.852097
v -0.718772 0.852096 -0.879097
v -0.745772 0.867912 -0.906097
v -0.745772 0.906096 -0.867913
v -0.718772 -0.852097 0.879097
v -0.745772 -0.867913 0.906097
v -0.745772 -0.906097 0.867913
v -0.718772 -0.879097 0.852097
v -0.718772 -0.852097 -0.879096
v -0.718772 -0.879097 -0.852096
v -0.745772 -0.906097 -0.867913
v -0.745772 -0.867913 -0.906096
v -0.659264 0.879097 0.852096
v -0.659264 0.852097 0.879096
v -0.647288 0.852097 0.852096
v -0.659264 0.879096 -0.852097
v -0.647288 0.852096 -0.852097
v -0.659264 0.852096 -0.879097
v -0.659264 -0.852097 0.879097
v -0.659264 -0.879097 0.852097
v -0.647288 -0.852097 0.852097
v -0.659264 -0.852097 -0.879096
v -0.647288 -0.852097 -0.852096
v -0.659264 -0.879097 -0.852096
vt 0.819070 0.164131
vt 0.509572 0.787645
vt 0.819070 0.787645
vt 0.509572 0.871723
vt 0.520212 0.871723
vt 0.509572 0.871723
vt 0.819070 0.080052
vt 0.509572 0.080053
vt 0.509572 0.080052
vt 0.505278 0.164132
vt 0.505278 0.787645
vt 0.505278 0.164131
vt 0.819070 0.871723
vt 0.808429 0.871723
vt 0.808429 0.871723
vt 0.819070 0.787645
vt 0.509572 0.164132
vt 0.819070 0.164132
vt 0.128418 0.152938
vt 0.128418 0.834660
vt 0.128418 0.152937
vt 0.515645 0.871723
vt 0.802357 0.871723
vt 0.812997 0.871723
vt 0.307310 0.152937
vt 0.307310 0.834661
vt 0.307310 0.152938
vt 0.812997 0.871723
vt 0.526285 0.871723
vt 0.515645 0.871723
vt 0.131165 0.152937
vt 0.304563 0.834660
vt 0.304563 0.152937
vt 0.131165 0.894392
vt 0.304563 0.894393
vt 0.304563 0.894392
vt 0.304563 0.152938
vt 0.131165 0.834661
vt 0.131165 0.152938
vt 0.823364 0.164131
vt 0.823364 0.164132
vt 0.819070 0.080053
vt 0.509572 0.164131
vt 0.823364 0.787645
vt 0.505277 0.787645
vt 0.310057 0.093205
vt 0.306172 0.093206
vt 0.310057 0.093206
vt 0.129556 0.093205
vt 0.125671 0.093206
vt 0.129556 0.093206
vt 0.307310 0.834660
vt 0.304563 0.834661
vt 0.131165 0.834660
vt 0.131165 0.894393
vt 0.128418 0.834661
vt 0.823364 0.787645
vt 0.509572 0.787645
vt 0.819070 0.871723
vt 0.306172 0.093205
vt 0.125671 0.093205
vt 0.802356 0.871723
vt 0.520212 0.871723
vt 0.526285 0.871723
vn 0.0000 0.0000 1.0000
vn 1.0000 -0.0000 0.0000
vn -1.0000 0.0000 0.0000
vn -0.0000 -1.0000 0.0000
vn -0.0000 -0.0000 -1.0000
vn 0.0000 1.0000 -0.0000
vn -0.5774 0.5774 0.5773
vn -0.5773 0.5774 -0.5774
vn -0.5773 -0.5774 -0.5774
vn -0.5774 -0.5774 0.5773
vn 0.8629 0.3574 0.3574
vn 0.8629 0.3574 -0.3574
vn 0.8629 -0.3574 -0.3574
vn 0.8629 -0.3574 0.3574
vn 0.7463 0.4706 0.4706
vn 0.7463 0.4706 -0.4706
vn 0.7463 -0.4706 0.4706
vn 0.7463 -0.4706 -0.4706
vn 0.8471 0.3758 0.3758
vn 0.8471 0.3758 -0.3758
vn 0.8471 -0.3758 0.3758
vn 0.8471 -0.3758 -0.3758
vn -0.7071 0.7071 -0.0000
vn -0.7071 0.0000 0.7071
vn 0.0000 0.7071 0.7071
vn -0.7071 -0.0000 -0.7071
vn 0.0000 0.7071 -0.7071
vn -0.7071 -0.7071 0.0000
vn -0.0000 -0.7071 -0.7071
vn 0.0000 -0.7071 0.7071
vn 0.7071 0.7071 -0.0000
vn 0.7071 0.0000 0.7071
vn 0.7071 -0.0000 -0.7071
vn 0.7071 -0.7071 0.0000
vn 0.9141 0.4055 -0.0000
vn 0.9141 0.0000 0.4055
vn 0.9141 -0.0000 -0.4055
vn 0.9141 -0.4055 0.0000
usemtl Material
s off
f 3/1/1 28/2/1 13/3/1
f 24/4/2 39/5/2 26/6/2
f 2/7/3 9/8/3 11/9/3
f 8/10/4 25/11/4 12/12/4
f 19/13/2 30/14/2 36/15/2
f 17/16/5 7/17/5 5/18/5
f 42/19/4 52/20/4 40/21/4
f 27/22/2 31/23/2 14/24/2
f 29/25/6 48/26/6 33/27/6
f 20/28/2 44/29/2 23/30/2
f 37/31/1 46/32/1 32/33/1
f 53/34/2 49/35/2 47/36/2
f 34/37/5 54/38/5 41/39/5
f 1/40/7 2/7/7 3/1/7
f 4/41/8 5/18/8 6/42/8
f 7/17/9 8/10/9 9/8/9
f 10/43/10 11/9/10 12/12/10
f 14/24/11 16/44/11 13/3/11
f 17/16/12 19/13/12 20/28/12
f 21/45/13 23/30/13 24/4/13
f 26/6/14 28/2/14 25/11/14
f 30/46/15 32/33/15 29/25/15
f 33/27/16 35/47/16 36/48/16
f 38/49/17 40/21/17 37/31/17
f 41/39/18 43/50/18 44/51/18
f 45/52/19 46/32/19 47/36/19
f 48/26/20 49/35/20 50/53/20
f 51/54/21 52/20/21 53/34/21
f 54/38/22 55/55/22 56/56/22
f 4/41/23 2/7/23 1/40/23
f 11/9/24 3/1/24 2/7/24
f 13/3/25 1/40/25 3/1/25
f 7/17/26 6/42/26 5/18/26
f 18/57/27 5/18/27 4/41/27
f 12/12/28 9/8/28 8/10/28
f 22/58/29 8/10/29 7/17/29
f 12/12/30 28/2/30 10/43/30
f 19/13/31 16/44/31 15/59/31
f 28/2/32 14/24/32 13/3/32
f 23/30/33 17/16/33 20/28/33
f 26/6/34 21/45/34 24/4/34
f 33/27/31 30/46/31 29/25/31
f 38/49/32 32/33/32 31/60/32
f 41/39/33 35/47/33 34/37/33
f 42/19/34 39/61/34 43/50/34
f 19/13/2 35/62/2 20/28/2
f 24/4/2 44/29/2 43/63/2
f 14/24/2 30/14/2 15/59/2
f 27/22/2 39/5/2 38/64/2
f 49/35/35 45/52/35 47/36/35
f 51/54/36 47/36/36 46/32/36
f 55/55/37 50/53/37 49/35/37
f 53/34/38 56/56/38 55/55/38
f 48/26/27 34/37/27 33/27/27
f 42/19/29 54/38/29 56/56/29
f 46/32/25 29/25/25 32/33/25
f 37/31/30 52/20/30 51/54/30
f 16/44/6 4/41/6 1/40/6
f 3/1/1 10/43/1 28/2/1
f 24/4/2 43/63/2 39/5/2
f 2/7/3 6/42/3 9/8/3
f 8/10/4 21/45/4 25/11/4
f 19/13/2 15/59/2 30/14/2
f 17/16/5 22/58/5 7/17/5
f 42/19/4 56/56/4 52/20/4
f 27/22/2 38/64/2 31/23/2
f 29/25/6 45/52/6 48/26/6
f 20/28/2 35/62/2 44/29/2
f 37/31/1 51/54/1 46/32/1
f 53/34/2 55/55/2 49/35/2
f 34/37/5 50/53/5 54/38/5
f 14/24/11 15/59/11 16/44/11
f 17/16/12 18/57/12 19/13/12
f 21/45/13 22/58/13 23/30/13
f 26/6/14 27/22/14 28/2/14
f 30/46/15 31/60/15 32/33/15
f 33/27/16 34/37/16 35/47/16
f 38/49/17 39/61/17 40/21/17
f 41/39/18 42/19/18 43/50/18
f 4/41/23 6/42/23 2/7/23
f 11/9/24 10/43/24 3/1/24
f 13/3/25 16/44/25 1/40/25
f 7/17/26 9/8/26 6/42/26
f 18/57/27 17/16/27 5/18/27
f 12/12/28 11/9/28 9/8/28
f 22/58/29 21/45/29 8/10/29
f 12/12/30 25/11/30 28/2/30
f 19/13/31 18/57/31 16/44/31
f 28/2/32 27/22/32 14/24/32
f 23/30/33 22/58/33 17/16/33
f 26/6/34 25/11/34 21/45/34
f 33/27/31 36/48/31 30/46/31
f 38/49/32 37/31/32 32/33/32
f 41/39/33 44/51/33 35/47/33
f 42/19/34 40/21/34 39/61/34
f 19/13/2 36/15/2 35/62/2
f 24/4/2 23/30/2 44/29/2
f 14/24/2 31/23/2 30/14/2
f 27/22/2 26/6/2 39/5/2
f 49/35/35 48/26/35 45/52/35
f 51/54/36 53/34/36 47/36/36
f 55/55/37 54/38/37 50/53/37
f 53/34/38 52/20/38 56/56/38
f 48/26/27 50/53/27 34/37/27
f 42/19/29 41/39/29 54/38/29
f 46/32/25 45/52/25 29/25/25
f 37/31/30 40/21/30 52/20/30
f 16/44/6 18/57/6 4/41/6
