# Blender v2.79 (sub 0) OBJ File: ''
# www.blender.org
mtllib switchUp.mtl
o Cube
v 0.973000 -1.000000 -0.973000
v 0.973000 -0.973000 -1.000000
v 1.000000 -0.973000 -0.973000
v -0.973000 -1.000000 -0.973000
v -1.000000 -0.973000 -0.973000
v -0.973000 -0.973000 -1.000000
v -1.000000 0.973000 -0.973000
v -0.973000 1.000000 -0.973000
v -0.973000 0.973000 -1.000000
v 1.000000 0.973000 -0.973000
v 0.973000 0.973000 -1.000000
v 0.973000 1.000000 -0.973000
v 1.000000 -0.973000 -0.893776
v 0.972999 -0.934817 -0.866776
v 0.934816 -0.973000 -0.866776
v 0.973000 -1.000000 -0.893776
v -1.000000 -0.972999 -0.893776
v -0.973000 -0.999999 -0.893776
v -0.934817 -0.972999 -0.866776
v -0.973001 -0.934816 -0.866776
v -0.973000 1.000000 -0.893776
v -1.000000 0.973000 -0.893776
v -0.973000 0.934817 -0.866776
v -0.934816 0.973000 -0.866776
v 0.973000 1.000000 -0.893776
v 0.934816 0.973000 -0.866776
v 0.973000 0.934816 -0.866776
v 1.000000 0.973000 -0.893776
v 0.852096 -0.879097 -0.839776
v 0.867912 -0.906097 -0.866776
v 0.906096 -0.867913 -0.866776
v 0.879096 -0.852097 -0.839776
v -0.852097 -0.879096 -0.839776
v -0.879097 -0.852096 -0.839776
v -0.906097 -0.867912 -0.866776
v -0.867913 -0.906096 -0.866776
v 0.879097 0.852097 -0.839776
v 0.906097 0.867913 -0.866776
v 0.867913 0.906097 -0.866776
v 0.852097 0.879097 -0.839776
v -0.879096 0.852097 -0.839776
v -0.852096 0.879097 -0.839776
v -0.867913 0.906097 -0.866776
v -0.906096 0.867913 -0.866776
v 0.852096 -0.879097 -0.655001
v 0.879096 -0.852097 -0.655001
v 0.852096 -0.852097 -0.628001
v -0.852097 -0.879096 -0.655001
v -0.852097 -0.852096 -0.628001
v -0.879097 -0.852096 -0.655001
v 0.879097 0.852097 -0.655001
v 0.852097 0.879097 -0.655001
v 0.852097 0.852097 -0.628001
v -0.879096 0.852097 -0.655001
v -0.852096 0.852097 -0.628001
v -0.852096 0.879097 -0.655001
vt 0.819070 0.240497
vt 0.509572 0.711279
vt 0.819070 0.711279
vt 0.509572 0.871723
vt 0.520212 0.871723
vt 0.520212 0.871723
vt 0.819070 0.080052
vt 0.509572 0.080053
vt 0.509572 0.080052
vt 0.505278 0.240498
vt 0.505278 0.711279
vt 0.505278 0.240497
vt 0.819070 0.871723
vt 0.808429 0.871723
vt 0.808429 0.871723
vt 0.819070 0.711279
vt 0.509572 0.240498
vt 0.819070 0.240498
vt 0.125073 0.179345
vt 0.125073 0.789851
vt 0.125073 0.179345
vt 0.515645 0.871723
vt 0.802357 0.871723
vt 0.812997 0.871723
vt 0.273451 0.179345
vt 0.273451 0.789852
vt 0.273451 0.179345
vt 0.812997 0.871723
vt 0.526285 0.871723
vt 0.515645 0.871723
vt 0.127352 0.179345
vt 0.271172 0.789851
vt 0.271172 0.179345
vt 0.127351 0.879061
vt 0.271172 0.879061
vt 0.271172 0.879061
vt 0.271172 0.179345
vt 0.127351 0.789852
vt 0.127351 0.179345
vt 0.823364 0.240497
vt 0.823364 0.240498
vt 0.819070 0.080053
vt 0.509572 0.240497
vt 0.823364 0.711279
vt 0.505278 0.711279
vt 0.509572 0.871723
vt 0.273451 0.090135
vt 0.273451 0.179345
vt 0.273451 0.090135
vt 0.273451 0.090135
vt 0.126017 0.090135
vt 0.126017 0.090135
vt 0.273451 0.789851
vt 0.271172 0.789852
vt 0.127351 0.789851
vt 0.127351 0.879061
vt 0.125073 0.789852
vt 0.823364 0.711279
vt 0.509572 0.711279
vt 0.819070 0.871723
vt 0.526285 0.871723
vt 0.799841 0.871723
vt 0.272507 0.090135
vt 0.125073 0.090135
vt 0.125073 0.090135
vt 0.802356 0.871723
vt 0.273451 0.090135
vt 0.273451 0.179345
vt 0.528801 0.871723
vn 1.0000 -0.0000 0.0000
vn -0.0000 0.0000 1.0000
vn 0.0000 0.0000 -1.0000
vn 0.0000 1.0000 -0.0000
vn -1.0000 0.0000 -0.0000
vn -0.0000 -1.0000 0.0000
vn 0.5773 -0.5773 -0.5774
vn -0.5774 -0.5773 -0.5774
vn -0.5773 0.5773 -0.5774
vn 0.5774 0.5774 -0.5773
vn 0.3574 -0.3574 0.8629
vn -0.3574 -0.3574 0.8629
vn -0.3574 0.3574 0.8629
vn 0.3574 0.3574 0.8629
vn 0.4706 -0.4706 0.7463
vn -0.4706 -0.4706 0.7463
vn 0.4706 0.4706 0.7463
vn -0.4706 0.4706 0.7463
vn 0.5773 -0.5774 0.5773
vn -0.5773 -0.5774 0.5774
vn 0.5773 0.5774 0.5773
vn -0.5773 0.5773 0.5774
vn 0.0000 -0.7071 -0.7071
vn 0.7071 -0.0000 -0.7071
vn 0.7071 -0.7071 0.0000
vn -0.7071 0.0000 -0.7071
vn -0.7071 -0.7071 0.0000
vn 0.0000 0.7071 -0.7071
vn -0.7071 0.7071 0.0000
vn 0.7071 0.7071 -0.0000
vn -0.0000 -0.7071 0.7071
vn 0.7071 -0.0000 0.7071
vn -0.7071 0.0000 0.7071
vn 0.0000 0.7071 0.7071
usemtl Material
s off
f 3/1/1 28/2/1 13/3/1
f 26/4/2 43/5/2 39/6/2
f 2/7/3 9/8/3 11/9/3
f 8/10/4 25/11/4 12/12/4
f 19/13/2 30/14/2 36/15/2
f 17/16/5 7/17/5 5/18/5
f 42/19/4 52/20/4 40/21/4
f 27/22/2 31/23/2 14/24/2
f 29/25/6 48/26/6 33/27/6
f 20/28/2 44/29/2 23/30/2
f 37/31/1 46/32/1 32/33/1
f 53/34/2 49/35/2 47/36/2
f 34/37/5 54/38/5 41/39/5
f 1/40/7 2/7/7 3/1/7
f 4/41/8 5/18/8 6/42/8
f 7/17/9 8/10/9 9/8/9
f 10/43/10 11/9/10 12/12/10
f 14/24/11 16/44/11 13/3/11
f 17/16/12 19/13/12 20/28/12
f 21/45/13 23/30/13 24/46/13
f 25/11/14 27/22/14 28/2/14
f 30/47/15 32/48/15 29/25/15
f 33/27/16 35/49/16 36/50/16
f 38/51/17 40/21/17 37/31/17
f 42/19/18 44/52/18 41/39/18
f 45/53/19 46/32/19 47/36/19
f 48/26/20 49/35/20 50/54/20
f 51/55/21 52/20/21 53/34/21
f 54/38/22 55/56/22 56/57/22
f 1/40/23 6/42/23 2/7/23
f 11/9/24 3/1/24 2/7/24
f 13/3/25 1/40/25 3/1/25
f 5/18/26 9/8/26 6/42/26
f 18/58/27 5/18/27 4/41/27
f 12/12/28 9/8/28 8/10/28
f 22/59/29 8/10/29 7/17/29
f 12/12/30 28/2/30 10/43/30
f 15/60/31 18/58/31 16/44/31
f 28/2/32 14/24/32 13/3/32
f 20/28/33 22/59/33 17/16/33
f 26/4/34 21/45/34 24/46/34
f 33/27/31 30/47/31 29/25/31
f 38/61/32 32/62/32 31/23/32
f 41/39/33 35/63/33 34/37/33
f 42/19/34 39/64/34 43/65/34
f 19/13/2 35/66/2 20/28/2
f 24/46/2 44/29/2 43/5/2
f 14/24/2 30/14/2 15/60/2
f 27/22/2 39/6/2 38/61/2
f 49/35/31 45/53/31 47/36/31
f 51/55/32 47/36/32 46/32/32
f 55/56/33 50/54/33 49/35/33
f 53/34/34 56/57/34 55/56/34
f 48/26/27 34/37/27 33/27/27
f 42/19/29 54/38/29 56/57/29
f 46/32/25 29/25/25 32/33/25
f 37/31/30 52/20/30 51/55/30
f 16/44/6 4/41/6 1/40/6
f 3/1/1 10/43/1 28/2/1
f 26/4/2 24/46/2 43/5/2
f 2/7/3 6/42/3 9/8/3
f 8/10/4 21/45/4 25/11/4
f 19/13/2 15/60/2 30/14/2
f 17/16/5 22/59/5 7/17/5
f 42/19/4 56/57/4 52/20/4
f 27/22/2 38/61/2 31/23/2
f 29/25/6 45/53/6 48/26/6
f 20/28/2 35/66/2 44/29/2
f 37/31/1 51/55/1 46/32/1
f 53/34/2 55/56/2 49/35/2
f 34/37/5 50/54/5 54/38/5
f 14/24/11 15/60/11 16/44/11
f 17/16/12 18/58/12 19/13/12
f 21/45/13 22/59/13 23/30/13
f 25/11/14 26/4/14 27/22/14
f 30/47/15 31/67/15 32/48/15
f 33/27/16 34/68/16 35/49/16
f 38/51/17 39/64/17 40/21/17
f 42/19/18 43/65/18 44/52/18
f 1/40/23 4/41/23 6/42/23
f 11/9/24 10/43/24 3/1/24
f 13/3/25 16/44/25 1/40/25
f 5/18/26 7/17/26 9/8/26
f 18/58/27 17/16/27 5/18/27
f 12/12/28 11/9/28 9/8/28
f 22/59/29 21/45/29 8/10/29
f 12/12/30 25/11/30 28/2/30
f 15/60/31 19/13/31 18/58/31
f 28/2/32 27/22/32 14/24/32
f 20/28/33 23/30/33 22/59/33
f 26/4/34 25/11/34 21/45/34
f 33/27/31 36/50/31 30/47/31
f 38/61/32 37/69/32 32/62/32
f 41/39/33 44/52/33 35/63/33
f 42/19/34 40/21/34 39/64/34
f 19/13/2 36/15/2 35/66/2
f 24/46/2 23/30/2 44/29/2
f 14/24/2 31/23/2 30/14/2
f 27/22/2 26/4/2 39/6/2
f 49/35/31 48/26/31 45/53/31
f 51/55/32 53/34/32 47/36/32
f 55/56/33 54/38/33 50/54/33
f 53/34/34 52/20/34 56/57/34
f 48/26/27 50/54/27 34/37/27
f 42/19/29 41/39/29 54/38/29
f 46/32/25 45/53/25 29/25/25
f 37/31/30 40/21/30 52/20/30
f 16/44/6 18/58/6 4/41/6
